<?xml version="1.0" encoding="UTF-8" standalone="no"?>
<svg
   xmlns:dc="http://purl.org/dc/elements/1.1/"
   xmlns:cc="http://creativecommons.org/ns#"
   xmlns:rdf="http://www.w3.org/1999/02/22-rdf-syntax-ns#"
   xmlns:svg="http://www.w3.org/2000/svg"
   xmlns="http://www.w3.org/2000/svg"
   id="svg60"
   xml:space="preserve"
   viewBox="0 0 508 508"
   version="1.1"
   enable-background="new 0 0 508 508"><metadata
     id="metadata66"><rdf:RDF><cc:Work
         rdf:about=""><dc:format>image/svg+xml</dc:format><dc:type
           rdf:resource="http://purl.org/dc/dcmitype/StillImage" /><dc:title>xfwm4-stork</dc:title></cc:Work></rdf:RDF></metadata><defs
     id="defs64" /><title
     id="title2">xfwm4-stork</title><flowRoot
     id="flowRoot10"
     xml:space="preserve"
     style="font-feature-settings:normal;font-variant-caps:normal;font-variant-ligatures:normal;font-variant-numeric:normal;line-height:1.25"
     writing-mode="lr"
     word-spacing="0px"
     letter-spacing="0px"
     font-size="104.63px"
     font-family="'URW Gothic L'"
     fill="black"><flowRegion
       id="flowRegion6"><rect
         id="rect4"
         height="152.83"
         width="241.08"
         y="342.25"
         x="142.07" /></flowRegion><flowPara
       id="flowPara8" /></flowRoot><ellipse
     id="ellipse12"
     stroke-width=".82025"
     stroke="#333"
     fill="#f95"
     ry="206.52"
     rx="210.18"
     cy="243.75"
     cx="270.1" /><g
     id="g30"
     stroke-width="1.2457"><path
       id="path14"
       fill="#d0d0d0"
       d="m263.22 336.69c3.5882-1.0585 11.689-4.5829 18.003-7.8321 9.5426-4.9112 13.319-6.1176 22.387-7.1522 12.979-1.4808 21.497-3.7919 34.66-9.4044 9.5519-4.0725 10.17-4.1605 28.741-4.0859 14.629 0.0587 20.474 0.59979 25.503 2.3604 3.5882 1.2563 10.649 3.4973 15.691 4.98 8.9878 2.643 9.379 2.6507 19.97 0.39356 8.673-1.8483 14.233-2.1461 28.198-1.5101 17.644 0.80349 24.886-0.33076 25.994-4.0708 0.78747-2.6588-9.7302-8.9894-22.58-13.591-7.5571-2.7063-14.9-6.4228-19.518-9.8783-12.012-8.9886-20.257-10.274-36.256-5.6532-12.475 3.6033-23.028 4.2791-45.305 2.9012-20.756-1.2838-24.383-2.409-36.606-11.356-9.3853-6.8699-12.621-12.676-12.621-22.651 0-10.329 3.1321-19.15 11.122-31.327 8.0409-12.254 25.975-34.599 32.504-40.499 11.066-9.9998 18.73-25.978 29.378-61.252 6.1838-20.485 8.8132-34.001 9.6698-49.708 0.76306-13.99-0.92254-22.892-4.3348-22.892-1.6933 0-2.8854 2.1251-4.9533 8.8297l-2.7234 8.8297-1.0091-9.8108c-1.1111-10.803-4.4142-20.51-7.4102-21.778-3.3241-1.4067-5.2571 2.5295-6.4844 13.204-1.0686 9.2948-2.3806 14.642-2.3806 9.7029 0-3.9289-6.0337-15.15-8.9284-16.604-2.5056-1.259-3.3426-1.0788-5.3686 1.1553-2.486 2.7415-2.4636 5.6449 0.12958 16.825 1.111 4.7899 0.92756 4.6616-4.0478-2.832-2.4974-3.7615-4.0786-4.9054-6.7806-4.9054-4.859 0-6.6351 4.3622-4.8803 11.986 0.70751 3.0739 1.1191 5.7735 0.91453 5.999-0.20452 0.22556-2.074-0.63842-4.1544-1.92-3.7327-2.2993-3.813-2.2893-6.0916 0.75813-3.0399 4.0657-2.9445 5.1247 1.2545 13.928l3.5635 7.4706-3.1088-0.86045c-8.0973-2.2412-9.5954-2.2453-11.602-0.03192-1.189 1.3112-1.718 3.1371-1.2666 4.372 0.42632 1.1663 1.0393 2.8317 1.3623 3.7009 0.33211 0.89391-0.70988 1.9393-2.3989 2.4068-4.4484 1.2313-7.1401 5.1043-6.2537 8.9988 0.5946 2.6126-0.74741 5.6742-6.5905 15.035-6.35 10.173-8.3067 12.317-14.544 15.935-3.9636 2.2991-9.7444 6.2046-12.846 8.6789-5.0261 4.0092-18.211 19.33-25.505 29.637l-2.6762 3.7816-7.4064-6.3163c-31.518-26.879-56.197-56.983-71.802-87.587-8.3337-16.343-10.522-19.199-14.333-18.712-2.8691 0.36677-3.1132 0.87548-3.0572 6.3705 0.0412 4.0387 1.482 9.3319 4.4512 16.351l4.3903 10.379-7.0526-8.1314c-3.879-4.4723-10.577-12.829-14.885-18.572-8.12-10.824-11.368-13.213-14.304-10.526-3.4716 3.1774-1.6155 8.9472 8.448 26.261 2.8875 4.9679 5.25 9.3702 5.25 9.7831 0 1.2821-9.6594-7.4892-19.2-17.435-8.9735-9.3542-12.148-11.038-14.962-7.9349-3.6444 4.019-0.77069 10.506 10.61 23.951 4.1464 4.8985 7.0051 8.6622 6.3527 8.3637-3.5386-1.619-14.864-8.5427-18.979-11.602-6.8426-5.088-8.3847-5.4522-10.772-2.5436-1.961 2.3896-1.972 2.8481-0.16935 7.0168 1.0608 2.4531 5.4206 7.546 9.6884 11.318 4.2679 3.7716 7.5722 7.0642 7.3429 7.317-0.22923 0.25281-2.9386-0.73246-6.0209-2.1895-6.6914-3.1631-10.513-3.3604-12.554-0.64819-2.5759 3.4228 0.51789 8.0244 9.7946 14.568 4.7413 3.3445 8.8551 6.296 9.142 6.5589 0.28683 0.26295-0.69004 1.4139-2.1708 2.5577-2.0972 1.6199-2.5208 2.8422-1.9163 5.5294 0.90294 4.0138 4.7813 8.9626 7.8716 10.044 1.7401 0.60905 1.8979 1.2009 0.82504 3.0953-2.2252 3.9294-0.18123 8.9554 4.9584 12.192 3.3402 2.1035 4.7222 3.8497 4.7287 5.9748 5e-3 1.6515 1.477 4.461 3.2712 6.2432 5.2688 5.2341 6.1689 6.2251 9.8469 10.841 1.9237 2.4143 3.4977 4.9413 3.4977 5.6155 0 0.67419 2.467 4.1343 5.4822 7.6892 4.8738 5.746 6.1197 8.5815 11.226 25.548 3.1591 10.497 6.7698 20.955 8.0237 23.24 1.2539 2.2853 2.661 5.6266 3.1269 7.4253 0.46586 1.7986 2.1175 5.3453 3.6703 7.8815 1.5528 2.5362 3.5823 7.3925 4.51 10.792l1.6867 6.1807-3.1459 0.19973c-1.7303 0.10988-7.7574 0.0475-13.394-0.13872-9.6111-0.31744-10.856-0.0357-20.033 4.534-5.3821 2.6798-13.581 5.5856-18.221 6.4572-7.7703 1.4599-8.4295 1.8343-8.3642 4.7501 0.039 1.7409 0.42882 4.3426 0.86628 5.7815 0.72062 2.3703-0.56819 3.0732-13.712 7.478-20.526 6.8786-22.842 7.1296-29.498 3.1968-5.3918-3.1858-8.1399-2.8356-8.1399 1.0372 0 0.90376-6.0872 1.3764-17.689 1.3735-9.7292-3e-3 -18.112 0.45954-18.629 1.0266-0.51672 0.56706-0.34234 2.7756 0.3875 4.908 1.313 3.8359 1.2768 3.8858-3.4172 4.7136-4.6528 0.82048-7.2888 3.8263-4.8267 5.5038 0.68539 0.467 15.042 0.75138 31.903 0.63199 32.86-0.23267 31.088 0.0205 65.65-9.3799 13.787-3.7499 33.371-6.0875 50.413-6.0173 14.202 0.0585 14.278 0.0755 33.7 7.5393 10.706 4.1144 23.987 8.3502 29.514 9.413 12.601 2.4233 29.682 2.3498 38.206-0.16435zm-38.711-6.3987c-5.0956-1.0752-17.942-5.2132-28.549-9.1956-22.584-8.48-31.968-9.8203-50.162-7.1647-9.5475 1.3935-12.374 1.398-15.382 0.0243-2.0264-0.92564-3.51-1.8752-3.297-2.1102 0.21308-0.23497 7.3189-1.9177 15.791-3.7393 8.4718-1.8216 22.059-5.3179 30.195-7.7694 11.084-3.3399 18.211-4.6484 28.433-5.2197 13.851-0.77416 32.475-4.8086 45.557-9.8687 7.9276-3.0664 13.219-3.3446 24.05-1.2645 15.324 2.9428 17.316-1.5194 7.3741-16.517-10.691-16.127-17.413-33.419-22.198-57.096l-2.2871-11.319 7.8545-7.7328c4.32-4.253 11.858-10.284 16.751-13.401s10.84-7.3413 13.216-9.3862c4.0333-3.4718 12.744-7.9492 28.301-14.547 4.6246-1.9614 9.323-2.788 16.138-2.8391 8.2665-0.062 10.636 0.46582 16.903 3.7658 4.0091 2.1108 7.2892 4.3703 7.2892 5.021 0 0.65075-6.626 8.6364-14.724 17.746-31.511 35.446-42.077 53.616-42.174 72.53-0.037 7.2352-0.14626 7.5042-2.4869 6.1227-1.8172-1.0725-2.8872-1.0431-4.1516 0.1142-2.7148 2.4847-2.0682 3.607 4.0467 7.0242 3.1626 1.7673 8.6339 5.9447 12.158 9.283 3.5245 3.3384 11.07 8.5544 16.768 11.591l10.36 5.5216-2.0454 3.2039c-1.125 1.7622-3.4174 6.1472-5.0942 9.7445l-3.0488 6.5406-11.197 2.8462c-6.1581 1.5654-15.282 3.4005-20.274 4.0778-6.6842 0.90684-12.158 2.8075-20.758 7.2084-6.4243 3.2872-13.549 6.5498-15.832 7.2501-6.426 1.9709-27.244 1.7237-37.525-0.44556zm0.53868-10.097c-0.27499-2.1002-1.4711-3.1397-4.3573-3.7869-2.188-0.49063-6.0757-1.9351-8.6392-3.2099-4.9467-2.4599-7.9299-1.3385-6.6007 2.4814 0.7823 2.2482 12.606 7.4102 16.973 7.4102 2.4232 0 2.9302-0.55926 2.6244-2.8948zm17.495-4.0629c1.1332-3.2567-0.18802-4.3861-6.1931-5.2938-3.0707-0.46414-8.4302-1.8336-11.91-3.0432-4.903-1.7044-6.6456-1.8479-7.7431-0.63756-2.02 2.2276 0.65969 4.6692 7.9716 7.2635 9.7617 3.4634 17.023 4.1586 17.874 1.7111zm191.04-19.8c0.83885-2.4107-4.6328-8.5609-7.6164-8.5609-1.2333 0-3.1114 1.0589-4.1736 2.3532-1.6746 2.0407-4.2591 2.3843-19.459 2.5877-11.601 0.15519-16.927-0.19144-15.749-1.0251 0.9786-0.69275 3.1498-1.2686 4.825-1.2796 1.6751-0.0105 7.013-1.1835 11.862-2.6054 11.821-3.4666 21.447-3.4197 28.109 0.13693 5.7943 3.0933 7.2024 5.44 5.0111 8.3516-1.8767 2.4937-3.6715 2.5202-2.809 0.0415zm-9.0403-0.78943c0-0.677 0.80068-1.2309 1.7793-1.2309 1.8343 0 2.3566 1.5435 1.0207 3.0167-0.94768 1.0451-2.8-0.13629-2.8-1.7858zm-167.25-27.464c-3.3518-1.0379-13.576-1.6972-27.479-1.7721-12.177-0.0657-22.525-0.54241-22.995-1.0595-0.46968-0.51715-0.0295-2.3279 0.97822-4.0239 1.5933-2.6816 1.6283-4.051 0.26836-10.502-0.8601-4.0803-1.9298-14.926-2.3771-24.1-0.73744-15.126-0.58571-17.26 1.6272-22.889 2.6762-6.8073 2.7584-6.594-4.563-11.835-4.7387-3.3922-9.087-10.23-13.065-20.546-4.4041-11.421-3.5312-20.264 2.8915-29.292 1.6725-2.3509 2.2639-1.9509 11.742 7.9432 5.4895 5.7304 14.716 14.442 20.504 19.36 13.092 11.124 17.996 16.107 20.002 20.326 0.86134 1.8114 3.7276 12.872 6.3695 24.579 5.3029 23.498 11.847 40.58 20.916 54.595l5.3662 8.2929-7.4238-3.7104c-4.0831-2.0407-9.8258-4.4542-12.762-5.3632z" /><path
       id="path16"
       fill="#b9b9b9"
       d="m262.3 336.75c3.7356-0.99863 12.134-4.5163 18.664-7.817 9.8123-4.9601 13.753-6.2158 22.713-7.2381 13.229-1.5093 22.247-4.0077 34.121-9.4528 8.9715-4.114 9.2141-4.1481 29.212-4.1032 19.261 0.0433 20.671 0.22667 31.434 4.0891 15.037 5.396 18.816 5.8534 29.643 3.5883 6.3658-1.3317 15.357-1.8174 29.217-1.5782 20.238 0.34924 26.174-0.75186 25.062-4.6485-0.75237-2.6354-14.007-9.8344-25.348-13.767-6.9241-2.4011-12.869-5.4782-16.515-8.5488-10.721-9.0274-23.191-10.631-39.47-5.0766-5.6986 1.9446-10.714 2.252-32.455 1.9894-29.26-0.35338-33.098-1.2921-46.453-11.361-12.249-9.2357-15.339-17.365-11.99-31.543 3.4804-14.736 14.714-31.653 39.407-59.346 16.561-18.573 18.868-22.71 28.53-51.169 10.515-30.971 15.815-59.732 13.977-75.854-1.5897-13.95-5.3936-13.91-9.661 0.10282l-2.5615 8.4111-0.87835-10.465c-1.9414-23.131-11.359-31.559-13.155-11.773-1.3246 14.595-1.6663 15.249-4.1763 7.9942-2.7004-7.8049-6.5654-12.573-10.192-12.573-5.0023 0-5.5309 5.1773-2.134 20.899 0.47236 2.1863-0.58292 1.1229-3.2452-3.2703-3.1089-5.1301-4.7164-6.5932-7.583-6.9022-2.925-0.31522-3.9073 0.2601-5.0129 2.9361-1.3878 3.359-0.84354 9.8375 1.1954 14.229 0.97003 2.0893 0.52522 2.0148-3.5992-0.60291-3.9899-2.5323-4.996-2.7214-6.6117-1.2427-3.0676 2.8076-2.3682 10.572 1.5691 17.419l3.4748 6.0423-3.1782-1.0997c-7.8431-2.7138-9.6294-2.7045-12.139 0.06305-2.2872 2.5223-2.3353 2.9585-0.64124 5.8098 1.7615 2.9647 1.7013 3.1143-1.5739 3.9076-5.036 1.2198-7.8896 5.1845-6.375 8.8575 1.0462 2.5372 0.17012 4.5436-6.4234 14.711-6.4312 9.9171-8.8768 12.561-15.514 16.774-12.611 8.0053-18.19 13.08-27.86 25.34-4.9963 6.3346-9.8453 12.674-10.775 14.088-1.6248 2.469-2.151 2.1882-13.383-7.1421-23.842-19.805-56.715-60.705-68.505-85.232-6.6102-13.751-9.7925-18.115-13.21-18.115-5.6732 0-4.6825 10.089 2.6333 26.816l2.8606 6.5405-8.0806-9.1568c-4.4443-5.0362-11.135-13.382-14.869-18.546-3.7335-5.1642-7.8893-9.7749-9.2352-10.246-3.0082-1.0529-5.8918 1.3812-5.8918 4.9735 0 2.9787 5.0677 13.396 12.03 24.728 2.5173 4.0974 4.5769 7.8143 4.5769 8.2597 0 1.2398-16.965-14.325-21.999-20.183-5.5436-6.4514-10.459-8.9647-12.995-6.6441-4.1568 3.8044-1.534 10.049 10.026 23.872 4.0615 4.8564 7.061 8.8297 6.6657 8.8297-1.2906 0-21.938-13.169-22.656-14.45-1.1814-2.108-6.3413-1.3809-7.5262 1.0605-1.9407 3.999 1.5653 10.16 9.8848 17.37 4.3221 3.7457 7.6133 7.0807 7.3138 7.411-0.29952 0.33031-3.0588-0.62593-6.1318-2.125-6.6341-3.2362-10.378-3.4544-12.432-0.72462-2.4711 3.2836 0.42213 7.9819 8.2463 13.391 10.921 7.5505 11.562 8.1328 9.8586 8.9617-5.1813 2.5218-3.4201 11.39 3.1064 15.641 3.0947 2.016 3.2867 2.551 2.1292 5.9329-1.1275 3.2941-0.8827 4.1655 2.1513 7.6579 1.883 2.1674 4.3972 4.2815 5.5871 4.698 1.2776 0.44717 2.1635 2.0041 2.1635 3.8021 0 1.6746 1.4068 4.4311 3.1263 6.1254s4.2549 4.471 5.6344 6.1705c1.3795 1.6995 3.976 4.8772 5.7701 7.0616 1.7941 2.1844 3.262 4.4533 3.262 5.042 0 0.58874 2.3331 3.9674 5.1847 7.5082 4.3981 5.461 5.9484 9.053 10.218 23.676 2.7684 9.481 6.2399 19.74 7.7144 22.799 1.4746 3.0583 3.0683 6.9928 3.5416 8.7434 0.47336 1.7506 2.1783 5.333 3.7888 7.961 1.6105 2.628 3.6512 7.4275 4.5349 10.666 1.5442 5.6582 1.5063 5.9172-0.971 6.6516-1.4178 0.4203-7.4216 0.3975-13.342-0.0506-10.516-0.79608-10.981-0.70735-20.165 3.8519-9.3314 4.6321-16.802 7.0854-23.635 7.7619-2.975 0.29451-3.5303 0.88856-3.3863 3.6225 0.0948 1.7986 0.53359 4.4945 0.97516 5.9907 0.73922 2.5048-0.36093 3.1043-13.877 7.5622-20.414 6.7331-22.23 6.953-28.735 3.4803-5.5839-2.9809-8.9485-2.8231-8.9485 0.41975 0 1.5009-3.1401 1.8082-17.131 1.6762-18.607-0.1755-21.558 0.72949-18.721 5.7398 2.0676 3.6511 1.9721 3.787-3.318 4.7198-5.0825 0.89626-6.8912 2.5492-5.0324 4.599 0.63377 0.69891 12.413 1.4382 26.527 1.6649 28.553 0.4586 38.952-0.75606 60.972-7.1221 18.018-5.209 40.871-8.4106 59.902-8.3922l14.827 0.0144 19.575 7.4199c29.219 11.075 49.714 13.975 66.691 9.4368zm-38.367-6.5529c-4.9708-1.0388-17.782-5.1996-28.468-9.2462-18.741-7.0965-19.894-7.3632-32.479-7.5165-7.1764-0.0874-16.785 0.3396-21.351 0.94892-5.7376 0.76553-9.4029 0.63605-11.862-0.41902-4.5089-1.9346-2.6138-3.2513 6.5201-4.5301 3.586-0.50206 15.863-3.6055 27.282-6.8966 15.913-4.586 24.087-6.2261 34.996-7.0214 15.689-1.1437 27.555-3.5362 43.114-8.6925 13.559-4.4935 17.83-4.9284 29.538-3.0075 7.7772 1.276 10.201 1.2772 11.59 5e-3 2.9904-2.7369 1.9676-7.0705-3.5018-14.838-10.612-15.071-16.565-29.587-22.074-53.829l-3.5644-15.684 7.4415-7.5345c4.0928-4.144 11.712-10.297 16.931-13.673 5.2192-3.3759 11.382-7.787 13.696-9.8024 4.418-3.8489 19.333-11.292 31.379-15.659 10.087-3.6568 21.48-2.9209 30.544 1.973 3.7513 2.0254 6.8206 4.2718 6.8206 4.9921s-7.6099 9.9634-16.911 20.54c-28.81 32.762-38.723 49.624-39.772 67.649-0.54169 9.3084-0.61932 9.5071-3.278 8.3924-1.8351-0.76942-3.1178-0.61734-3.9334 0.46635-1.609 2.138-0.35699 3.9329 4.1414 5.9375 2.0394 0.90882 6.8435 4.5941 10.676 8.1895 7.5083 7.0444 19.192 14.79 24.475 16.226 4.5029 1.2237 4.9335 2.5662 2.1767 6.7852-1.3029 1.9939-3.5959 6.2515-5.0956 9.4612-2.4447 5.2323-3.4411 6.0754-9.634 8.1518-3.799 1.2738-12.873 3.1234-20.165 4.1102-9.8556 1.3339-14.921 2.7249-19.74 5.4206-21.458 12.004-35.395 14.136-59.493 9.1003zm0.8601-8.962c0.96946-2.7861 1.1564-2.632-7.2426-5.9688-9.2288-3.6664-11.684-3.8637-12.213-0.98108-0.31065 1.692 1.059 3.042 5.0724 4.9998 8.057 3.9303 13.441 4.6602 14.384 1.95zm17.759-5.1345c1.0548-3.0313-0.42017-4.7878-4.0166-4.7831-1.7556 3e-3 -7.0843-1.2681-11.842-2.823-6.8205-2.2294-8.9526-2.4882-10.083-1.2242-1.9052 2.1311 1.358 4.8042 8.866 7.2631 10.102 3.3082 16.272 3.8746 17.075 1.5673zm190.29-21.064c0-3.202-3.828-7.2688-6.8419-7.2688-0.86309 0-2.7686 1.3245-4.2344 2.9432-2.601 2.8724-3.1351 2.9275-22.187 2.2892-14.997-0.50246-18.147-0.88438-13.591-1.6478 3.262-0.54658 10.735-2.1748 16.607-3.6184 13.389-3.2917 22.197-3.2894 28.783 8e-3 5.5962 2.8011 7.233 5.5927 5.0107 8.5457-2.1554 2.8636-3.546 2.3732-3.546-1.251zm-8.3033 0.50268c0-0.677 0.80068-1.2309 1.7793-1.2309 1.8343 0 2.3566 1.5435 1.0207 3.0167-0.94768 1.0451-2.8-0.13629-2.8-1.7858zm-224.05-13.331c1.1833-3.7772 2.1732-8.0449 2.1998-9.4838 0.0266-1.4389 1.5482-5.4929 3.3814-9.0089 3.1568-6.0548 3.2558-6.7209 1.8724-12.602-0.80334-3.4153-1.8408-14.12-2.3054-23.788-0.77397-16.106-0.63926-18.091 1.6082-23.694l2.4529-6.1151-3.1006-2.2934c-8.2414-6.0959-13.035-12.823-16.749-23.508-2.0555-5.9123-3.7372-11.965-3.7372-13.45 0-3.4484 2.7959-10.842 5.9429-15.716l2.4479-3.7911 9.3587 10.224c5.1473 5.6232 14.069 14.224 19.825 19.113 13.116 11.14 19.076 17.28 21.29 21.934 0.95267 2.0022 3.569 11.823 5.814 21.825 6.3764 28.407 12.901 45.08 23.256 59.432 2.544 3.5258 4.4365 6.6191 4.2055 6.8739-0.23102 0.25478-3.2482-0.1282-6.7049-0.85118-9.6355-2.0152-17.942-1.5787-25.644 1.3474-13.962 5.3042-33.654 9.982-43.299 10.285l-4.2659 0.13411z" /><path
       id="path18"
       fill="#a3a3a3"
       d="m261.74 336.8c4.0795-0.97725 12.62-4.5049 18.979-7.8392 9.5339-4.9991 13.375-6.2726 21.902-7.2609 13.668-1.5841 18.672-2.8993 32.567-8.5588 10.508-4.28 13.14-4.8127 26.691-5.4012 16.744-0.72715 26.154 0.62584 39.99 5.7497 7.8548 2.9088 10.342 3.2476 19.112 2.6033 5.5454-0.40736 12.485-1.2359 15.42-1.8412 2.9358-0.60528 10.676-0.62861 17.2-0.0518 18.38 1.6249 31.129-0.7551 28.563-5.3324-1.4248-2.5424-14.236-9.1198-25.847-13.27-6.2971-2.2509-12.827-5.5946-15.429-7.9002-10.173-9.0156-20.461-10.814-35.982-6.2917-9.7885 2.8522-12.61 3.0709-36.261 2.8104-22.628-0.24919-26.418-0.60067-32.2-2.9862-8.9878-3.7084-20.035-11.813-24.086-17.669-2.9338-4.2417-3.3676-6.0112-3.3676-13.734 0-7.6106 0.61994-10.227 4.3819-18.491 5.4709-12.019 17.245-28.182 36.58-50.216 15.432-17.587 17.362-20.691 23.688-38.108 13.72-37.774 20.115-68.341 18.301-87.474-1.3204-13.925-4.7057-14.821-8.8268-2.3374-1.382 4.1864-3.0494 8.789-3.7053 10.228-1.0892 2.3891-1.1446 2.3456-0.6385-0.50059 0.96276-5.4147-1.512-23.798-3.7804-28.081-4.4275-8.3602-8.0278-5.2972-9.2168 7.8411-1.3075 14.448-1.6474 15.026-4.1787 7.0987-2.8458-8.9115-6.5379-13.424-10.56-12.907-2.8112 0.36165-3.0034 0.84948-2.9863 7.5811 9e-3 3.957 0.46357 9.2549 1.0079 11.773 0.989 4.5755 0.98724 4.5745-2.8033-1.6424-4.2329-6.9424-8.5566-9.1061-11.566-5.7877-2.0706 2.2834-2.243 8.9839-0.37092 14.414 1.4592 4.2324 0.99096 4.3081-3.5831 0.57871-4.4137-3.5986-7.4358-2.0707-7.9862 4.0379-0.37194 4.1277 0.9596 8.0782 5.0115 14.869l2.1345 3.5771-3.5741-1.374c-1.9658-0.75571-5.6248-1.1881-8.1312-0.96087-3.7194 0.3372-4.6283 0.96742-4.9446 3.4284-0.21318 1.6584 0.21148 3.8113 0.94372 4.7843 1.0565 1.4039 0.46138 2.0857-2.8835 3.303-4.8506 1.7654-7.1724 5.4446-5.5824 8.8461 0.82527 1.7655-0.67451 5.0507-6.556 14.361-6.8071 10.775-8.478 12.565-15.559 16.67-4.3632 2.529-10.694 7.1039-14.068 10.166-5.7827 5.2487-17.881 19.519-23.298 27.479-1.3462 1.9785-2.8243 3.5973-3.2847 3.5973-0.46039 0-7.4326-5.7833-15.494-12.852-27.139-23.797-51.414-55.009-66.306-85.256-6.259-12.712-10.386-16.523-13.808-12.749-1.8265 2.0142-1.8908 2.9698-0.57177 8.4902 0.81749 3.4213 3.0667 10.047 4.9984 14.723l3.512 8.5027-8.6882-9.8655c-4.7785-5.426-11.481-13.784-14.894-18.574-6.5089-9.1338-9.7966-11.415-12.665-8.7899-3.5664 3.2641-2.1497 7.5473 8.542 25.824 3.4882 5.9629 6.3422 11.155 6.3422 11.537 0 1.2817-14.541-11.824-21.402-19.29-7.4062-8.0587-10.978-10.05-13.647-7.6066-4.1392 3.7883-1.154 10.26 12.024 26.068l7.0115 8.4105-8.3033-5.0016c-4.5668-2.7509-10.819-6.7414-13.894-8.8678-6.0295-4.1699-9.5577-4.375-10.218-0.59399-0.89588 5.1301 1.3083 8.8877 9.3786 15.989 4.605 4.0519 8.1608 7.6009 7.9018 7.8866-0.25905 0.28568-3.7611-0.80194-7.7823-2.4169-5.6488-2.2686-7.7855-2.607-9.3969-1.488-5.1153 3.5522-1.3411 9.4323 11.592 18.06 4.7997 3.202 7.0074 5.3406 5.8945 5.7099-5.7668 1.9141-4.864 9.8426 1.684 14.791 3.5611 2.6909 3.7847 3.2527 2.6338 6.6154-1.1097 3.242-0.85463 4.1388 2.1658 7.6155 1.883 2.1674 4.3972 4.2815 5.5871 4.698 1.1899 0.41649 2.1635 1.9682 2.1635 3.4483 0 1.48 2.5355 5.4929 5.6344 8.9174 8.2879 9.1587 10.409 11.958 12.57 16.587 1.071 2.2946 2.9649 4.958 4.2087 5.9187 3.6006 2.7812 6.7126 9.7869 11.207 25.228 4.3657 15 12.785 36.374 15.793 40.093 0.95983 1.1867 2.4583 5.1391 3.33 8.7831 1.5003 6.2719 1.4584 6.6697-0.78498 7.4549-1.3034 0.4562-7.0483 0.42112-12.766-0.078-9.6199-0.83965-10.963-0.64443-17.973 2.6131-12.827 5.9599-16.673 7.3144-23.515 8.2802-7.0755 0.99889-7.4509 1.6438-5.5077 9.4617 0.81861 3.2935 0.5798 3.4403-13.3 8.1744-19.409 6.6199-23.93 7.188-29.316 3.6837-5.2918-3.4432-7.7488-3.5284-8.5155-0.29526-0.54864 2.3136-1.7938 2.4754-17.619 2.2892-18.698-0.22005-21.462 0.6605-18.498 5.894 1.8768 3.3141 0.28153 4.9725-4.8138 5.0044-3.5778 0.0225-5.412 2.1738-3.5779 4.1965 0.75209 0.82939 12.108 1.3451 30.085 1.3662 30.511 0.0358 41.178-1.4009 61.497-8.283 10.825-3.6664 38.099-7.0551 56.344-7.0005l15.42 0.0462 19.572 7.5127c28.849 11.074 46.91 13.675 64.947 9.354zm-37.072-6.0795c-6.6855-1.4888-18.132-5.3402-35.586-11.974-14.819-5.632-26.52-6.9428-42.247-4.7326-9.5032 1.3356-12.656 1.3271-16.756-0.0447-6.3552-2.1262-5.2382-2.6602 13.46-6.4349 7.5714-1.5285 20.382-4.7577 28.468-7.176 10.326-3.0882 18.409-4.6156 27.157-5.1315 14.076-0.83015 31.942-4.5207 45.485-9.3958 9.9998-3.5998 17.315-4.068 28.874-1.848 12.651 2.4295 14.514-2.6056 5.6304-15.221-10.93-15.522-17.911-32.988-22.991-57.518l-2.4381-11.773 7.4157-7.6581c4.0786-4.212 9.8177-9.1635 12.754-11.003 2.9358-1.8399 9.6571-6.4966 14.936-10.348 5.2791-3.8516 15.688-9.78 23.131-13.174 12.676-5.7804 14.208-6.1725 24.208-6.1937 9.1408-0.0194 11.656 0.48417 17.496 3.5023 3.7513 1.9387 6.8206 4.2228 6.8206 5.0758 0 0.85297-6.5537 8.9795-14.564 18.059-32.121 36.409-42.373 54.174-42.373 73.426 0 5.6205-0.24737 6.209-2.3546 5.6012-3.2228-0.9294-6.0396 0.44871-5.2944 2.5902 0.33785 0.97093 2.358 2.4607 4.4893 3.3106 2.1313 0.84989 6.5629 4.0754 9.848 7.1677 8.2573 7.7728 16.399 13.345 24.475 16.749 6.678 2.8151 6.7947 2.9491 4.7447 5.4458-1.156 1.4078-3.7031 5.867-5.6603 9.9093-3.3383 6.8946-3.9828 7.4909-10.413 9.6333-3.7701 1.2561-12.959 3.1667-20.421 4.2458-10.368 1.4994-15.254 2.9017-20.726 5.948-10.813 6.0195-18.755 9.2114-26.061 10.475-7.2778 1.2583-22.306 0.53717-31.508-1.5118zm0.21007-9.7272c0.78974-2.2696-1.3992-4.3943-4.5599-4.4263-1.0876-0.0105-4.3872-1.1591-7.3323-2.5513-4.3076-2.0362-5.6019-2.203-6.6182-0.85263-1.7414 2.314 1.3866 5.1751 8.5558 7.8259 7.1286 2.6357 9.0387 2.6366 9.9547 4e-3zm17.685-4.9233c1.138-3.2704-0.26662-4.3351-6.8541-5.1955-3.4253-0.44737-8.7797-1.8254-11.899-3.0622-4.0029-1.5874-6.0415-1.84-6.9311-0.85897-2.9108 3.21 6.295 7.9521 19.944 10.274 3.943 0.67064 5.1911 0.41906 5.7395-1.157zm-127.62-12.645c0-1.4486-0.0164-1.4416 8.8964-3.7625 3.262-0.84943 9.327-3.2844 13.478-5.411 7.124-3.6499 8.3995-3.8665 22.764-3.8665 8.3695 0 15.498 0.50153 15.842 1.1145 0.7633 1.362-14.149 5.9686-32.512 10.044-14.528 3.224-28.468 4.1455-28.468 1.8819zm317.9-8.3875c0-3.202-3.828-7.2688-6.8419-7.2688-0.86309 0-2.7686 1.3245-4.2344 2.9432-2.6101 2.8824-3.0933 2.9297-23.373 2.2892-13.29-0.41976-19.274-1.0055-16.705-1.6351 2.2019-0.5396 5.7076-0.98109 7.7904-0.98109 2.0829 0 7.7543-1.1634 12.603-2.5854 11.215-3.2889 22.677-3.3717 28.981-0.20937 6.6182 3.32 8.3475 5.8294 5.8872 8.5427-2.7027 2.9805-4.1079 2.6058-4.1079-1.0954zm-8.3033 1.2339c0-1.0792 0.80068-1.9622 1.7793-1.9622 0.97861 0 1.7793 0.88297 1.7793 1.9622s-0.80067 1.9622-1.7793 1.9622c-0.9786 0-1.7793-0.88297-1.7793-1.9622zm-50.685-5.3687c0.39417-0.43467 1.4172-0.48113 2.2735-0.10321 0.94626 0.41758 0.66519 0.72755-0.71665 0.79031-1.2504 0.0568-1.951-0.25237-1.5569-0.68704zm-174.7-4.7691c0.62076-1.6188 1.9876-6.7464 3.0373-11.395 1.0498-4.6483 3.0234-10.178 4.3859-12.288 2.2649-3.5077 2.3604-4.4651 1.1138-11.17-0.74987-4.0335-1.7193-14.765-2.1542-23.847-0.6864-14.334-0.49474-17.422 1.4517-23.391l2.2425-6.8771-2.9313-2.1172c-9.4058-6.7937-13.989-13.953-18.363-28.684-2.5141-8.4678-1.8411-13.343 3.0053-21.77l3.6148-6.2858 11.495 12.362c6.3221 6.799 15.765 15.916 20.984 20.261 5.2192 4.3444 11.671 10.513 14.337 13.708 4.5656 5.471 5.125 7.0607 9.6154 27.327 6.5672 29.639 11.696 42.197 26.106 63.93l2.1011 3.1686-4.1355-0.93599c-13.211-2.9901-18.451-2.6356-33.446 2.2627-15.553 5.0807-30.398 8.3788-38.573 8.5701-4.7595 0.11132-4.9582-0.0331-3.8872-2.8259z" /><path
       id="path20"
       fill="#8c8c8c"
       d="m260.54 336.9c4.0693-1.0249 12.873-4.5935 19.563-7.9302 9.5342-4.7551 14.346-6.3398 22.256-7.3294 13.637-1.7062 23.01-4.2235 34.69-9.317 9.7772-4.2636 9.8516-4.2739 30.559-4.2152 20.217 0.0573 21.045 0.16819 31.748 4.2514 12.478 4.7603 19.933 5.274 32.899 2.2671 6.6699-1.5468 10.988-1.6703 21.953-0.6278 17.878 1.6996 30.469-0.65093 27.914-5.2107-1.3905-2.4811-13.818-8.788-24.323-12.344-6.3913-2.1635-12.859-5.5404-17.793-9.2906-12.25-9.3106-19.914-10.159-40.265-4.4584-9.5532 2.6761-26.097 3.1158-48.74 1.2954-10.73-0.86265-13.59-1.6188-20.651-5.4593-4.5076-2.4519-11.004-7.4091-14.437-11.016-5.2874-5.556-6.3668-7.5098-7.0651-12.788-2.2861-17.281 8.1516-36.013 40.982-73.55 15.898-18.176 16.077-18.449 21.723-33.073 7.5389-19.526 15.561-46.653 18.09-61.171 3.654-20.978 2.438-43.833-2.2407-42.113-0.76752 0.28213-3 5.1742-4.961 10.871l-3.5655 10.358-0.6546-13.17c-0.68651-13.813-3.2464-21.682-7.3364-22.55-2.7843-0.59133-4.2596 3.3456-5.1035 13.619-1.0858 13.218-1.5575 13.751-4.6769 5.2874-3.5665-9.6772-6.1487-12.854-10.042-12.353-2.7968 0.35932-3.0265 0.88696-3.0158 6.9295 6e-3 3.5973 0.4288 8.8951 0.93872 11.773l0.92712 5.2324-3.7578-6.2302c-3.9624-6.5693-8.2005-8.9125-11.183-6.1828-2.0127 1.8421-2.3407 9.9154-0.60704 14.944 1.4143 4.1022 0.92431 4.1634-3.6264 0.4531-7.7265-6.2996-10.797 3.5142-4.779 15.274l3.5862 7.0076-4.1551-1.2652c-6.7082-2.0426-11.685-0.99292-12.142 2.5608-0.21318 1.6584 0.21148 3.8113 0.94372 4.7843 1.0564 1.4037 0.46469 2.0844-2.8653 3.2964-5.006 1.8219-6.7344 4.6583-5.3268 8.7413 0.78357 2.2728 0.38497 3.8235-1.6989 6.6094-1.4974 2.002-4.9086 7.2239-7.5803 11.604-4.1179 6.7515-6.3912 8.9136-14.928 14.197-9.8918 6.1224-24.642 21.104-34.849 35.395-2.8794 4.0317-4.1368 4.9322-5.4791 3.9243-9.9172-7.447-28.677-25.249-38.741-36.763-18.532-21.202-32.155-41.276-43.238-63.711-4.9375-9.9947-8.9609-13.227-12.124-9.7389-1.6288 1.7962-1.6994 2.9687-0.49613 8.2386 0.77164 3.3794 3.0036 10.047 4.96 14.816l3.557 8.6717-7.2785-7.8486c-4.0032-4.3168-10.72-12.673-14.927-18.569-8.0792-11.324-11.382-13.741-14.332-10.488-2.7394 3.021-1.0351 8.3932 7.209 22.724 4.0733 7.0807 7.8846 13.744 8.4695 14.806 1.5433 2.8042-16.817-13.666-23.312-20.913-6.2736-6.9993-9.6922-8.5368-12.383-5.569-3.5632 3.9294-0.64016 9.9582 12.303 25.375l6.7585 8.0504-5.3257-2.9922c-2.9292-1.6457-9.2162-5.5947-13.971-8.7755-9.5737-6.4041-12.518-6.7247-13.074-1.4238-0.5204 4.9547 2.2672 8.9788 11.695 16.883 4.5134 3.784 8.0085 7.0981 7.7667 7.3647-0.24175 0.26659-3.7945-1.0186-7.8949-2.8561-8.7667-3.9284-11.267-4.1414-12.814-1.092-1.9748 3.8915 1.4808 8.5466 10.954 14.757 4.939 3.2376 8.9953 6.2593 9.0139 6.715 0.0186 0.45568-1.0336 1.1364-2.3385 1.5127-1.7108 0.49337-2.3724 1.7843-2.3724 4.629 0 2.9948 1.1622 5.0419 4.8257 8.5 4.2929 4.0523 4.6623 4.8436 3.3459 7.1682-1.8517 3.2698 0.64374 8.0504 6.0356 11.563 1.9721 1.2847 3.5856 3.3812 3.5856 4.6588 0 1.2777 3.5155 6.277 7.8122 11.11 4.2968 4.8326 8.8408 11.01 10.098 13.727 1.2571 2.7174 3.5584 5.8603 5.1141 6.9844 3.2422 2.3427 6.0348 9.011 11.355 27.113 3.2767 11.15 9.3192 26.205 16.664 41.52 1.2077 2.5181 2.3607 6.3443 2.5622 8.5027l0.36638 3.9243h-14.234c-13.941 0-14.432 0.10085-23.862 4.8997-5.3602 2.728-12.853 5.3862-16.905 5.9973-4.0026 0.60365-7.5968 1.4498-7.9871 1.8802-0.39033 0.43047-0.0695 2.9218 0.71291 5.5363 0.78245 2.6145 1.236 4.9476 1.0079 5.1846-1.2136 1.261-28.489 10.105-33.107 10.735-4.1274 0.56293-6.5767 0.0814-10.332-2.0312-6.0785-3.4198-7.0353-3.4421-7.9724-0.18621-0.69767 2.4241-1.8017 2.5745-17.956 2.446-18.651-0.14838-21.223 0.64095-18.39 5.6439 1.8705 3.303 0.28377 4.9722-4.7569 5.0044-3.1955 0.0204-5.4356 3.2035-3.2857 4.6688 0.65217 0.44449 14.107 0.82174 29.899 0.83832 30.764 0.0323 34.251-0.43188 60.741-8.0852 14.647-4.2319 31.979-6.6331 54.048-7.4878l14.904-0.57723 19.496 7.3618c10.723 4.049 23.232 8.2464 27.799 9.3276 12.221 2.8933 30.571 3.4707 39.426 1.2406zm-30.803-5.2766c-6.9515-1.1555-20.024-5.044-32.868-9.7768-19.075-7.0287-22.489-7.8954-32.347-8.2115-6.0616-0.19433-15.674 0.16753-21.361 0.80416-7.6418 0.85541-11.275 0.73045-13.923-0.47884-1.9702-0.89999-3.3341-2.0792-3.0308-2.6204 0.30332-0.5412 3.8996-1.3991 7.9917-1.9064 4.0921-0.50732 17.849-3.7753 30.571-7.2623 16.705-4.5786 26.591-6.5671 35.586-7.1579 12.836-0.84306 33.957-5.4127 45.817-9.9126 7.5009-2.8459 16.759-3.2558 26.89-1.1904 12.286 2.5047 14.742-2.3933 6.856-13.675-11.423-16.342-18.169-32.743-23.353-56.771l-3.0177-13.988 7.916-8.1527c4.3538-4.484 11.879-10.565 16.722-13.513 4.8434-2.9484 10.264-6.6862 12.046-8.3063 4.2406-3.8558 8.4463-6.3284 19.253-11.319 16.619-7.6748 24.122-9.3806 33.166-7.539 7.5096 1.5292 17.84 6.9211 17.84 9.3113 0 0.90309-4.5955 6.6325-10.212 12.732-13.604 14.774-30.429 36.333-36.71 47.04-6.5158 11.108-10.335 23.44-9.8156 31.694l0.39404 6.2614-3.8551-0.79841c-5.5293-1.1452-5.1491 2.6296 0.59309 5.8881 2.4465 1.3883 7.8908 5.5837 12.098 9.3231 6.6517 5.9116 19.872 14.007 26.521 16.24 1.9716 0.66216 1.9027 1.0698-0.85406 5.0556-1.6492 2.3845-4.0751 7.0193-5.3909 10.3-2.2317 5.5637-2.8516 6.1012-9.2285 8.0026-9.0813 2.7078-12.183 3.3232-23.66 4.6948-7.7082 0.92113-12.143 2.4158-21.538 7.2588-18.885 9.7351-28.808 11.347-49.096 7.9744zm-5.2622-9.4029c2.0038-2.2097 0.3397-4.175-4.7262-5.5818-3.0344-0.84259-6.984-2.3686-8.7771-3.3911-2.8008-1.5972-3.4552-1.5999-4.6449-0.019-1.6691 2.2178 1.3266 4.7412 9.3216 7.8519 5.6748 2.208 7.6293 2.4604 8.8267 1.1399zm18.111-6.1974c1.1075-3.1827-0.56585-4.7007-5.2319-4.7462-2.408-0.0235-7.314-1.1816-10.902-2.5735-8.2673-3.2071-9.4895-3.2119-9.4895-0.0377 0 2.0584 1.6153 3.0953 8.0068 5.1398 12.417 3.9721 16.814 4.5255 17.617 2.2175zm-125.76-10.73c-3.7107-1.5703-1.8674-4.0842 3.6008-4.9107 3.0124-0.45534 9.5513-2.8509 14.531-5.3234 8.6953-4.3176 9.6777-4.5073 24.819-4.791 22.294-0.4177 22.436 1.311 0.59052 7.1817-9.7091 2.6091-22.432 5.5629-28.273 6.564-13.177 2.2583-12.992 2.2427-15.268 1.2795zm316.02-9.6708c0-3.1013-3.9787-7.8486-6.5779-7.8486-1.0083 0-3.0324 1.3245-4.498 2.9432-2.6192 2.8928-3.0436 2.932-24.76 2.2892-12.153-0.35973-22.494-1.0955-22.982-1.6351-0.48751-0.5396 3.3394-0.98521 8.5042-0.99026 5.5479-5e-3 13.517-1.1383 19.473-2.7684 13.119-3.5902 22.926-3.6241 29.189-0.10085 6.7074 3.7735 8.1718 5.9667 5.7601 8.6263-2.5724 2.8368-4.1079 2.6442-4.1079-0.51548zm-8.3033 0.65405c0-1.0792 0.80068-1.9622 1.7793-1.9622 0.97861 0 1.7793 0.88297 1.7793 1.9622s-0.80067 1.9622-1.7793 1.9622c-0.9786 0-1.7793-0.88297-1.7793-1.9622zm-225.96-9.4838c0.47174-1.2591 1.7876-6.1154 2.9241-10.792 1.1365-4.6765 3.269-10.722 4.7389-13.436 1.7778-3.2815 2.4049-5.9089 1.8732-7.8486-1.4487-5.2847-3.6758-39.449-2.8762-44.121 0.43093-2.5181 1.5083-6.5693 2.3942-9.0026 1.4692-4.0357 1.4106-4.5527-0.66773-5.8865-6.1932-3.9746-12.033-11.315-15.691-19.722-6.6211-15.218-6.686-22.35-0.29212-32.084l3.628-5.523 10.875 11.639c5.9814 6.4014 16.615 16.55 23.63 22.553 7.0154 6.0028 13.784 12.75 15.041 14.993 1.2573 2.2434 4.4231 13.494 7.035 25.002 6.5426 28.825 12.917 44.864 23.549 59.257 2.2879 3.0971 3.8624 5.9592 3.4988 6.3602-0.36361 0.40097-4.0701 0.0744-8.2366-0.72575-11.023-2.1168-13.558-1.8763-26.486 2.5122-15.308 5.1964-31.525 8.9055-39.442 9.0212-5.6041 0.0819-6.2531-0.17741-5.4967-2.1963z" /><path
       id="path22"
       fill="#767676"
       d="m254.92 337.92c8.3002-1.4237 14.693-3.743 25.286-9.1729 9.1628-4.6972 13.713-6.2174 21.351-7.1328 14.695-1.7614 21.675-3.5659 34.024-8.7966l11.269-4.7732 20.758 0.0581c20.064 0.0561 21.15 0.19836 32.469 4.2514 13.2 4.7265 20.324 5.2152 32.104 2.2026 6.2414-1.5963 10.455-1.7552 21.268-0.80238 7.4165 0.65357 14.756 0.98708 16.31 0.74115 11.009-1.7421 11.722-2.0158 11.722-4.4987 0-3.012-12.686-10.078-25.589-14.253-4.7707-1.5437-11.166-4.8957-14.827-7.7713-11.792-9.2621-22.102-10.649-40.197-5.4084-9.2628 2.6828-11.912 2.8558-34.399 2.2467-26.751-0.72458-30.834-1.6901-42.724-10.104-26.021-18.414-19.855-41.269 24.883-92.24 17.877-20.368 19.104-22.58 29.52-53.23 7.5954-22.351 11.608-39.477 13.025-55.598 1.595-18.135-0.42964-31.355-4.3887-28.657-0.65793 0.44842-2.7027 5.6655-4.5438 11.594l-3.3476 10.778-0.66158-13.154c-0.69622-13.843-3.5472-23.048-7.3955-23.879-2.8482-0.61472-4.2497 3.5542-5.1364 15.28-0.44233 5.849-1.136 10.634-1.5414 10.634-0.40546 0-1.6566-2.8546-2.7803-6.3436-2.9398-9.128-6.3802-13.514-10.217-13.023-2.9181 0.37292-3.1211 0.83112-3.0743 6.9398 0.0275 3.5973 0.50667 8.8951 1.0647 11.773l1.0146 5.2324-4.0302-5.7627c-5.2017-7.4378-7.5358-9.0663-10.258-7.1568-2.2421 1.5729-2.8242 9.8529-1.1593 16.49l0.8956 3.5702-4.295-3.2143c-8.7865-6.5756-11.743 1.8577-5.16 14.72 3.5412 6.9195 3.5619 7.0601 0.88964 6.0175-1.5049-0.58717-5.1382-1.0789-8.0741-1.0928-4.6785-0.02211-5.3857 0.34724-5.7254 2.99-0.21318 1.6584 0.24727 3.8589 1.0232 4.8899 1.1288 1.4999 0.96911 2.0298-0.79859 2.6506-7.1835 2.5229-7.6507 3.0334-7.3965 8.0809 0.21028 4.174-0.90584 6.6671-7.4524 16.647-6.8617 10.46-8.6514 12.302-16.444 16.924-9.5755 5.6798-22.176 18.116-32.623 32.198l-6.649 8.9624-14.456-12.865c-28.144-25.045-51.367-54.501-66.772-84.693-8.2903-16.247-11.797-19.458-14.706-13.465-1.4895 3.0693 0.30005 10.645 5.3491 22.643 1.7602 4.183 2.9741 7.855 2.6974 8.1601-0.64678 0.71326-22.086-25.729-25.058-30.906-5.0832-8.8535-13.871-9.0587-12.123-0.28311 0.43895 2.204 4.5055 10.288 9.0367 17.965 4.5312 7.6766 8.2386 14.258 8.2386 14.625 0 1.2494-14.713-11.907-22.488-20.109-5.5736-5.8798-8.645-8.1757-10.937-8.1757-7.6855 0-4.5041 9.3896 8.5318 25.181 4.009 4.8564 7.0446 8.8297 6.7458 8.8297-1.0619 0-20.452-12.148-23.233-14.556-5.5068-4.7676-9.5467-2.2581-7.914 4.916 0.86608 3.8055 4.2691 7.7226 13.434 15.464 3.3664 2.8434 5.9329 5.3769 5.7034 5.63-0.22948 0.25306-3.7722-1.0432-7.8726-2.8807-8.9307-4.0019-11.314-4.1528-12.931-0.81935-1.7469 3.5996 2.6306 8.8815 13.194 15.92 7.6135 5.073 8.2223 5.7651 5.6528 6.4273-2.1648 0.55788-2.9691 1.7442-3.2402 4.7795-0.2991 3.3478 0.47455 4.8259 4.5291 8.6532 4.3526 4.1086 4.7272 4.9028 3.4101 7.2288-1.8517 3.2698 0.64374 8.0504 6.0356 11.563 1.9721 1.2847 3.5856 3.4314 3.5856 4.7706s1.6445 4.1079 3.6544 6.1528c5.5358 5.6323 5.4378 5.521 9.9327 11.282 2.3132 2.965 4.2058 5.9618 4.2058 6.6595 0 0.69767 2.354 4.0168 5.2312 7.3758 4.5611 5.325 5.8751 8.3125 10.258 23.323 4.3837 15.013 9.8956 29.148 17.761 45.548 1.2077 2.5181 2.3607 6.3443 2.5622 8.5027l0.36638 3.9243-14.234 0.0377c-13.001 0.0344-14.748 0.33349-20.165 3.4514-7.2395 4.167-17.5 7.6299-22.608 7.6299-5.2151 0-6.8115 2.4028-5.1302 7.7218 0.72757 2.3016 1.0088 4.5311 0.6249 4.9544-1.3111 1.4459-27.439 9.7376-33.015 10.477-4.2994 0.57046-6.6657 0.10452-10.416-2.051-5.9897-3.4429-6.7984-3.461-7.7448-0.17293-0.70877 2.4627-1.7947 2.6162-18.503 2.6162-14.75 0-17.866 0.33446-18.439 1.9788-0.37871 1.0884 0.0036 2.8992 0.85059 4.024 1.2699 1.6874 1.2412 2.2531-0.16384 3.2336-0.93666 0.6536-2.9208 1.1974-4.4092 1.2084-2.5268 0.0187-4.8779 3.2114-3.4911 4.7408 0.34095 0.37599 13.351 0.69632 28.912 0.71184 30.356 0.0303 39.441-1.2222 63.539-8.7598 5.6856-1.7784 16.361-3.8351 23.724-4.5706 7.3625-0.73542 16.589-1.8881 20.503-2.5614 12.107-2.0827 21.949-0.31444 44.802 8.0492 26.264 9.612 45.256 13.058 58.99 10.702zm-26.83-6.3701c-5.794-1.1014-19.342-5.3691-30.107-9.4838l-19.572-7.4812-23.724-1e-3c-13.048-5.5e-4 -24.925-0.48171-26.393-1.0692-3.7541-1.5026-3.3202-3.5081 0.75906-3.5081 4.6965 0 23.691-4.362 42.24-9.7 10.678-3.073 20.345-4.859 31.434-5.8076 14.972-1.2807 21.673-2.8027 49.759-11.302 5.687-1.721 7.741-1.7292 17.097-0.0684 17.537 3.113 19.289-0.51916 7.9112-16.393-9.0701-12.654-16.339-31.413-21.449-55.354l-2.4835-11.636 6.313-7.1078c3.4721-3.9093 10.85-10.072 16.396-13.695 5.5454-3.623 12.557-8.5806 15.581-11.017 6.478-5.2184 28.361-15.238 38.127-17.458 5.0375-1.145 8.424-1.1867 12.777-0.15721 7.2728 1.72 17.734 7.4119 17.734 9.6491 0 0.90649-3.7953 5.7529-8.4341 10.77-10.799 11.679-31.453 37.434-36.471 45.477-7.4983 12.019-11.193 22.613-11.321 32.467l-0.11731 8.9854-3.8551-0.78728c-5.7445-1.1731-5.0537 2.7007 1.0988 6.1621 2.7246 1.5329 8.1869 5.7541 12.138 9.3805 6.6006 6.0577 19.501 13.973 25.675 15.754 2.5478 0.73474 2.5474 0.73858-0.50117 5.1462-1.6779 2.426-4.1334 7.1098-5.4565 10.408-2.3679 5.9032-2.5503 6.0399-11.601 8.69-5.0574 1.4809-14.188 3.2886-20.29 4.0173-9.0995 1.0866-13.152 2.3695-22.538 7.1342-20.581 10.449-29.989 11.93-50.728 7.9873zm-3.2336-10.481c0.85361-2.4531 1.6084-1.9613-8.8223-5.7481-6.1573-2.2354-9.0046-2.7325-9.9128-1.7308-1.6589 1.8294 2.838 5.1415 10.379 7.6443 6.9909 2.3202 7.4945 2.3102 8.356-0.1654zm18.202-6.4592c0-1.0758-1.4504-2.2407-3.262-2.6197-3.5236-0.73719-17.375-4.4307-20.758-5.5354-1.484-0.48449-2.0758 0.0593-2.0758 1.907 0 2.0237 1.6789 3.1925 7.7351 5.385 9.2331 3.3426 18.361 3.7716 18.361 0.86302zm158.09-7.6424c-16.037-6.2095-45.992-7.6718-58.746-2.8678l-4.4456 1.6746 2.6663-5.2382c3.0778-6.0465 7.3472-10.151 10.559-10.151 1.2291 0 6.0946 1.5634 10.812 3.4743 7.8271 3.1703 10.601 3.5423 31.708 4.2514 21.246 0.71377 23.48 1.0169 27.422 3.7203 2.6967 1.8494 6.1672 2.9432 9.3382 2.9432 4.2876 0 4.8306 0.28694 3.6106 1.908-3.9764 5.2838-19.665 5.4197-32.925 0.28536zm49.913 0.89984-10.618-0.83117 0.24411-3.8883c0.13425-2.1386 0.69363-4.3662 1.243-4.9504 0.98094-1.0429 22.82 6.164 27.222 8.9837 1.8994 1.2164 1.4969 1.4439-2.614 1.4776-2.6725 0.0219-9.6373-0.33425-15.477-0.79139zm-336.14-3.7788c-1.8725-2.4881-1.9995-2.4041 6.4418-4.2619 3.8561-0.84864 10.528-3.3679 14.827-5.5983 7.452-3.8663 8.5402-4.0598 23.349-4.152 15.73-0.098 21.256 0.99645 15.953 3.1596-9.6618 3.9415-46.842 12.498-55.361 12.741-2.0404 0.0581-4.3851-0.79155-5.2103-1.8881zm317.46-9.882c-1.1664-5.8862-9.2375-7.3892-12.189-2.2699-0.78407 1.3598-5.7376 1.5821-23.728 1.0646-22.681-0.65244-33.532-2.6162-14.456-2.6162 5.9735 0 13.639-1.0061 18.88-2.4778 4.8528-1.3628 10.86-2.8682 13.348-3.3454 6.5589-1.2576 16.347 1.3747 20.983 5.643l3.9653 3.6506-2.8006 3.0884c-1.5403 1.6986-2.9207 2.5366-3.0675 1.8621-0.14681-0.6745-0.56771-2.7442-0.93533-4.5994zm-7.6166 1.7379c0.48151-2.7573 2.5867-2.5834 3.1232 0.25794 0.22377 1.1851-0.4301 2.0312-1.5697 2.0312-1.2217 0-1.8035-0.85733-1.5535-2.2892zm-226.17-9.1568c0.48133-1.2591 1.6414-5.8211 2.5778-10.138s3.0461-10.391 4.6881-13.499c2.7017-5.1137 2.8675-6.2324 1.745-11.773-0.68224-3.3673-1.7983-13.338-2.4802-22.157-1.139-14.732-1.0462-16.669 1.142-23.832 1.3099-4.2882 2.3817-8.0719 2.3817-8.4083s-2.1018-1.9143-4.6706-3.5064c-5.8785-3.6435-11.157-11.683-14.932-22.744-4.3261-12.675-3.7614-18.71 2.6126-27.926l3.0124-4.3554 10.251 10.96c5.638 6.0279 16.213 16.08 23.5 22.339 7.2871 6.2584 14.397 13.426 15.799 15.929 1.4025 2.5025 4.5761 13.538 7.0526 24.524 6.2493 27.723 13.353 45.574 23.989 60.286 1.9851 2.7456 3.3181 5.3132 2.9622 5.7056-0.35587 0.39243-5.1324-0.0224-10.614-0.9218-9.8273-1.6123-10.144-1.5763-22.516 2.5617-16.737 5.598-31.946 9.0417-40.428 9.1541-6.1754 0.0817-6.8502-0.16236-6.0723-2.1972zm-12.684-29.766c-5.0786-3.6888-9.6586-9.9464-12.212-16.685l-1.8099-4.777 4.4421-0.77924c12.768-2.2398 18.859-5.5454 16.008-8.6887-0.89272-0.98448-3.4892-0.77662-8.8626 0.70949-11.951 3.3053-12.046 3.2664-16.476-6.7278-2.1525-4.8564-4.1156-9.2712-4.3623-9.8108-0.24675-0.5396 2.932-1.015 7.0639-1.0565 11.918-0.11956 17.002-1.4727 17.002-4.5252 0-2.443-0.69059-2.5684-11.862-2.1544-14.401 0.53374-17.671-0.62699-19.561-6.9436-0.96838-3.2358-3.3884-6.3176-7.7536-9.8738-3.4902-2.8434-7.6947-7.12-9.3434-9.5037-2.9138-4.2128-9.001-25.885-9.0071-32.067-6e-3 -5.9135-3.2385-10.384-9.1707-12.682-6.9846-2.7056-21.765-10.153-21.259-10.711 0.20439-0.22542 4.2917 1.0605 9.083 2.8576 10.69 4.0097 11.866 4.042 11.81 0.32422-0.0329-2.1711-3.7673-6.1972-14.234-15.346-7.8043-6.8216-14.19-12.573-14.19-12.781 0-0.20768 2.8024 1.4137 6.2275 3.6031 14.296 9.1382 32.751 19.618 34.547 19.618 4.0978 0 1.4953-4.714-9.8139-17.777-6.4584-7.4597-13.516-16.077-15.685-19.15-3.5619-5.048-3.1874-4.8175 3.8815 2.3884 4.303 4.3865 14.37 13.409 22.37 20.051 12.85 10.667 14.751 11.85 16.304 10.137 1.5526-1.7122 0.93872-3.2114-5.2639-12.856-12.16-18.908-22.597-37.39-16.16-28.616 14.291 19.481 37.18 44.14 39.502 42.557 1.9383-1.321 1.5602-2.507-6.6906-20.987-4.3364-9.7127-7.575-18.001-7.1969-18.418 0.37817-0.41705 2.1195 2.3907 3.8696 6.2394 5.4252 11.931 13.704 24.792 31.012 48.179l2.6008 3.5142-3.9805 6.1742c-6.0999 9.4615-7.211 16.555-4.2248 26.975 3.597 12.55 9.4338 23.535 14.96 28.152l4.8392 4.0436-1.6788 5.153c-1.8222 5.5932-1.3205 27.085 1.0268 43.982 1.0373 7.4671 0.92649 9.2273-0.75922 12.064-1.9247 3.2394-2.0812 3.2726-6.3066 1.3376-2.3831-1.0913-6.2914-3.4067-8.6852-5.1454zm-10.884-78.537c1.0894-3.1308-0.22181-3.7576-11.253-5.3794-5.6549-0.83135-12.817-1.9415-15.916-2.467-5.2062-0.88283-5.6344-0.74693-5.6344 1.7882 0 3.2724 3.9303 4.664 18.948 6.7084 12.874 1.7527 13.022 1.7458 13.856-0.65016zm-4.5485-29.747c2.0169-2.68 0.11814-4.1682-7.4971-5.8764-3.9144-0.87804-9.7542-3.0346-12.977-4.7924-6.236-3.4009-7.7809-3.3069-7.7809 0.47342 0 2.657 10.048 8.1935 18.979 10.457 6.9513 1.7621 7.7706 1.739 9.2764-0.26196zm79.027 37.395-2.6593-4.8593 7.2058-9.6067c10.55-14.065 21.11-24.441 30.913-30.375 9.7707-5.9137 10.501-6.7087 20.91-22.773 6.3489-9.7982 7.3189-11.995 6.1827-14.002-1.6204-2.8614-0.90248-3.4471 5.6391-4.6006 6.1473-1.084 7.2111-3.5016 3.4938-7.9404l-2.819-3.3662 2.9655 0.91343c1.631 0.50238 6.2855 2.1826 10.343 3.7339 5.7411 2.1948 7.6938 2.472 8.8022 1.2497s0.23326-3.2479-3.945-9.1309c-5.7573-8.1063-9.8184-15.894-8.8471-16.965 0.32857-0.36235 4.033 3.2243 8.232 7.9702 7.2656 8.212 11.511 10.739 11.511 6.8511 0-0.97786-1.8087-6.1285-4.0193-11.446-8.9007-21.41-6.2642-24.827 3.1702-4.1085 3.5888 7.881 7.138 14.062 8.0745 14.062 2.6404 0 2.6527-11.45 0.0274-25.502-1.2763-6.8318-2.1023-12.662-1.8355-12.956 1.2764-1.4076 5.4793 12.782 7.3317 24.753 1.9721 12.745 3.6657 16.425 6.2371 13.552 0.56854-0.63513 1.8671-9.5176 2.8857-19.739 1.0186-10.221 1.9052-19.051 1.9702-19.622 0.065-0.57066 0.54557 0.43404 1.0679 2.2327 1.4139 4.8687 1.358 21.702-0.12185 36.703-0.95327 9.6633-0.95327 13.651 0 14.702 2.2381 2.4682 4.0033-0.93441 9.2214-17.776 3.9189-12.648 4.9674-14.997 5.0413-11.295 0.18564 9.2962-3.8013 29.728-9.4862 48.613-4.8271 16.036-11.838 35.518-13.402 37.243-0.21345 0.23537-4.0708-1.4954-8.572-3.8461-7.2768-3.8003-9.3015-4.2698-18.266-4.2359-7.9065 0.0298-11.875 0.77648-18.386 3.4593-15.396 6.3439-21.318 9.4422-29.655 15.517-4.5668 3.3276-12.04 8.4585-16.607 11.402s-10.672 8.0345-13.567 11.313c-2.8951 3.2788-5.5146 5.685-5.8211 5.347-0.30648-0.33799-1.7539-2.8012-3.2166-5.4738zm53.682-37.885c0.91124-2.6187-4.572-8.2966-8.0122-8.2966-3.7345 0-2.6836 4.2878 1.8435 7.5216 4.9278 3.5201 5.2016 3.5544 6.1688 0.77495zm17.68-10.141c1.4997-4.3098-6.1521-14.483-9.7487-12.961-2.3673 1.0018-2.0232 3.5567 0.86539 6.4262 1.3797 1.3706 2.9678 3.8164 3.5292 5.4352 1.1381 3.2818 4.3642 3.944 5.3541 1.0992zm37.708-2.8413c0.93554-2.6886 0.93554-23.26 0-25.948-0.396-1.138-1.7305-2.0692-2.9655-2.0692-2.073 0-2.2455 1.1555-2.2455 15.043s0.17248 15.043 2.2455 15.043c1.235 0 2.5695-0.93111 2.9655-2.0692zm-18.656-2.6022c0.9359-2.6896-1.3798-13.059-3.8499-17.24-1.8471-3.126-6.4269-4.0574-6.4325-1.3081-2e-3 0.89933 1.0147 3.9897 2.2589 6.8676 1.2442 2.8778 2.7136 6.9503 3.2653 9.0499 1.181 4.4946 3.637 5.8522 4.7582 2.6302z" /><path
       id="path24"
       fill="#606060"
       d="m259.07 336.96c4.5668-0.96222 13.786-4.5227 20.487-7.9122 10.152-5.1349 14.31-6.4697 24.931-8.0035 12.461-1.7994 26.925-5.9384 36.428-10.424 11.847-5.592 41.696-4.6316 59.572 1.9166 12.243 4.4849 19.605 4.9864 30.579 2.0828 5.3589-1.418 11.382-1.6884 24.383-1.0944 19.966 0.91213 26.03 0.11658 26.03-3.4151 0-2.9295-13.044-10.158-26.074-14.449-4.8806-1.6073-10.831-4.632-13.224-6.7215-10.845-9.472-23.955-11.479-41.364-6.331-12.38 3.6607-51.263 3.5216-62.36-0.22311-14.019-4.7306-28.07-17.399-29.66-26.74-2.9091-17.101 7.2143-35.908 38.659-71.82 19.174-21.898 19.881-23.156 30.285-53.879 9.3348-27.565 12.529-42.52 13.23-61.943 0.59801-16.569-0.55429-24.301-3.4619-23.233-0.78694 0.28928-3.0522 5.4878-5.034 11.552l-3.6032 11.026-0.70315-13.081c-0.90126-16.767-4.6484-26.116-9.2186-23.002-1.5303 1.043-3.7016 13.539-3.7125 21.366-4e-3 2.698-0.54065 4.9054-1.193 4.9054-0.65241 0-1.1914-1.0301-1.1978-2.2892-6e-3 -1.2591-1.3164-5.3799-2.9112-9.1576-3.4454-8.161-7.8367-11.259-11.005-7.7648-1.7643 1.9456-1.821 3.1966-0.52356 11.541 1.5642 10.059 1.2554 12.321-1.0174 7.456-2.2342-4.7827-7.3106-10.25-9.5174-10.25-4.6762 0-5.7633 7.186-2.7619 18.257l0.87127 3.2139-3.328-2.8868c-3.8361-3.3277-8.7004-3.7864-9.6996-0.91483-1.1339 3.2587 0.63468 10.539 3.8161 15.709 1.646 2.6748 2.8329 5.0246 2.6376 5.2217-0.19536 0.19712-3.0755-0.26394-6.4003-1.0245-9.5847-2.1927-11.532-0.16907-8.2148 8.5351 0.67581 1.773 0.29142 2.2892-1.7047 2.2892-5.1459 0-7.3811 2.4389-6.9858 7.6226 0.28759 3.7714-0.52134 6.1884-3.7621 11.241-9.9854 15.567-11.415 17.153-20.144 22.342-10.032 5.9642-20.321 16.051-31.642 31.018l-7.8196 10.339-3.1022-3.117c-1.7062-1.7144-7.6394-6.971-13.185-11.681-21.431-18.204-51.457-56.215-63.078-79.852-5.7344-11.664-11.083-19.307-13.513-19.307-5.1576 0-3.8079 11.183 3.1971 26.489 1.8932 4.1369 2.9874 7.5216 2.4314 7.5216-1.1606 0-16.427-18.41-23.321-28.124-5.9322-8.3581-7.5548-9.8108-10.958-9.8108-6.2819 0-4.4709 6.6134 7.3399 26.803 3.6108 6.1725 6.5651 11.531 6.5651 11.908 0 1.2447-14.651-11.721-22.663-20.056-8.3958-8.7343-13.255-10.601-14.683-5.6394-1.0436 3.626 1.5132 8.3456 11.197 20.668 4.6645 5.9355 8.1474 10.792 7.7399 10.792-0.69941 0-19.608-11.821-25.026-15.645-3.1395-2.2161-6.3846-0.96489-6.3846 2.4616 0 5.1613 2.8856 9.3302 11.487 16.595 4.8179 4.0695 8.5425 7.6387 8.2769 7.9316-0.26557 0.29287-4.1067-0.97174-8.5359-2.8102-8.8908-3.6904-12.414-3.3722-12.414 1.1211 0 3.6717 4.3218 8.1195 14.207 14.621 6.9975 4.6024 7.4208 5.1208 4.7447 5.8106-2.227 0.57404-3.0256 1.7346-3.299 4.7948-0.29925 3.3494 0.47509 4.8264 4.5439 8.6671 4.3535 4.1094 4.7511 4.946 3.5384 7.4448-1.7124 3.5285 0.73676 8.1868 5.8319 11.092 2.2007 1.255 3.7319 3.3891 4.2316 5.8978 0.43061 2.1621 2.2099 5.1056 3.9539 6.541 3.5632 2.9327 3.3087 2.6512 9.0478 10.008 2.3132 2.965 4.2058 5.9896 4.2058 6.7213s2.3368 3.9443 5.1929 7.1391c4.6244 5.1728 5.8075 7.874 10.807 24.673 3.088 10.375 6.8898 21.509 8.4483 24.741 1.5585 3.2319 2.8337 6.3807 2.8337 6.9974 0 0.61673 1.8373 4.4476 4.083 8.5131s4.4441 9.6225 4.8856 12.349l0.80262 4.9572-14.672-0.22641c-14.556-0.22463-14.742-0.18961-23.659 4.4615-4.9432 2.5784-12.375 5.2894-16.514 6.0247-4.1397 0.7352-8.014 1.8741-8.6096 2.531-0.65309 0.72022-0.30192 2.8597 0.88477 5.3904 1.0822 2.3079 1.7949 4.3749 1.5837 4.5932-1.377 1.4237-28.797 10.129-33.82 10.737-4.9356 0.59752-7.1507 0.17181-11.192-2.151l-5.0382-2.896-1.8563 2.6924c-1.7071 2.4759-3.2868 2.721-19.649 3.0484-16.164 0.32346-17.766 0.56557-17.496 2.6452 0.1631 1.259 0.42999 3.3193 0.59309 4.5784 0.22271 1.7192-0.68028 2.3926-3.6266 2.7047-3.5466 0.37562-6.2165 3.228-4.6443 4.9617 0.34212 0.37729 13.247 0.62798 28.678 0.5571 30.265-0.13904 36.938-1.0206 61.143-8.0779 7.5026-2.1875 18.979-4.4618 25.503-5.054 6.524-0.59222 15.331-1.7668 19.572-2.6101 11.325-2.2522 24.43-0.62811 38.545 4.7769 17.052 6.5296 28.782 10.491 35.671 12.046 10.594 2.392 26.681 2.8332 35.506 0.97387zm-31.828-5.3713c-5.6066-1.0782-18.087-4.9458-27.734-8.5947-24.973-9.4455-24.869-9.4256-44.23-8.4611-23.014 1.1466-23.076 1.1433-27.539-1.4357l-3.8945-2.2505 10.083-1.6469c10.611-1.7333 21.478-4.4569 43.716-10.957 9.4698-2.768 16.21-3.9368 22.703-3.9368 11.376 0 24.614-2.6334 43.583-8.6697 13.807-4.3935 14.916-4.5498 22.765-3.2069 10.436 1.7856 16.338 1.7956 17.328 0.0293 1.3421-2.3948-0.47121-7.3109-4.8084-13.036-9.7451-12.863-17.574-31.817-22.584-54.676l-3.2453-14.808 6.4016-7.1869c3.5209-3.9528 10.939-10.211 16.484-13.906 5.5454-3.6956 12.53-8.6465 15.52-11.002 8.4612-6.6641 31.349-16.735 41.363-18.2 6.4832-0.94843 16.994 1.913 24.06 6.5498l4.4343 2.9101-2.655 3.8306c-1.4602 2.1068-8.3172 10.108-15.238 17.781-14.902 16.521-28.064 34.218-33.031 44.408-4.6601 9.5612-7.6214 22.386-6.6754 28.91 0.68569 4.7288 0.57874 4.9793-1.5816 3.7043-3.3049-1.9505-6.0316-1.6896-6.0316 0.57712 0 1.0695 1.7348 2.7593 3.8551 3.755 2.1203 0.99575 7.5916 5.1435 12.158 9.2172 7.1543 6.3818 20.158 14.561 26.974 16.965 1.8344 0.64721 1.6654 1.3793-1.5206 6.5853-1.9715 3.2214-4.1668 7.6991-4.8784 9.9503-1.8287 5.7851-11.606 9.3978-31.556 11.661-9.2818 1.0528-12.77 2.1827-22.538 7.3-18.947 9.9267-31.183 11.782-51.687 7.8393zm-2.499-9.9425c1.0815-1.9298-0.0616-2.8324-6.9885-5.518-10.019-3.8844-11.47-4.0901-11.47-1.6257 0 3.7418 16.735 10.219 18.459 7.1437zm18.313-6.9304c0-1.2231-2.5158-2.311-7.6043-3.2882-4.1824-0.8032-9.5031-2.3352-11.824-3.4046-5.294-2.4394-6.668-2.4451-6.668-0.0281 0 2.3892 3.485 4.4899 11.214 6.7598 8.0156 2.3541 14.882 2.3362 14.882-0.0389zm-197.74 14.053c-9.9343-0.63128-13.451-1.3188-13.941-2.7254-0.55331-1.5901 1.739-1.814 14.816-1.447 11.133 0.31244 15.718-7e-3 16.352-1.1378 0.67629-1.2068 2.0542-1.1262 5.9309 0.34674 5.8678 2.2294 5.6938 2.2618 30.204-5.6256 17.26-5.5543 18.876-5.86 20.647-3.907 1.771 1.953 1.6516 2.1875-1.5258 2.9971-1.8959 0.48305-7.9843 2.2461-13.53 3.9179-9.2592 2.7914-23.582 6.3052-30.841 7.5659-5.0994 0.8857-14.336 0.89069-28.113 0.0152zm355.94-21.592c-10.775-3.8044-13.275-4.1759-31.283-4.6484-14.345-0.37642-21.235-0.022-25.8 1.327-3.4251 1.0123-6.2275 1.4691-6.2275 1.0152 0-1.2598 3.5701-6.8724 6.9279-10.891 3.8116-4.5621 6.2209-4.5226 19.949 0.32703 10.496 3.7077 12.191 3.9243 30.706 3.9243 18.738 0 19.863 0.14867 25.665 3.3907 4.0837 2.2821 7.3812 3.2216 10.085 2.8735 5.7758-0.74359 4.7255 3.0021-1.4138 5.0422-8.1592 2.7114-16.101 2.0562-28.61-2.3602zm46.708 0.66611c-7.7473-0.80689-8.0068-0.94978-8.0068-4.4089 0-6.341 2.0711-6.7579 13.705-2.759 5.8364 2.0061 12.213 4.6078 14.17 5.7815l3.5586 2.1341-7.7102 0.043c-4.2406 0.0237-11.313-0.33218-15.717-0.79083zm-332.78-3.3334c-2.371-2.6147-1.6691-3.3262 4.211-4.269 3.0989-0.49685 10.438-3.1242 16.31-5.8385 10.586-4.8936 10.797-4.9324 25.103-4.6062 7.9353 0.18096 15.408 0.95761 16.607 1.7259 1.1983 0.76827 1.7498 1.4148 1.2254 1.4366-0.52436 0.0219-7.1967 1.8368-14.827 4.0332-15.278 4.3976-36.435 8.8174-42.995 8.982-2.316 0.0581-4.8515-0.60074-5.6344-1.4641zm315.59-13.146c-1.0202-1.2591-3.3433-2.2892-5.1624-2.2892s-4.005 1.0301-4.8575 2.2892c-1.4118 2.0852-3.6292 2.2309-24.88 1.6351-12.831-0.35973-23.73-1.0955-24.218-1.6351-0.48848-0.5396 3.3376-0.9704 8.5025-0.95733 5.9046 0.0149 14.753-1.2842 23.835-3.4997 13.21-3.2222 15.019-3.3818 21.157-1.8669 4.2912 1.059 8.0658 3.0322 10.465 5.4706l3.753 3.8141-5.9309 5.5331-0.40469-3.1023c-0.22259-1.7063-1.2394-4.1324-2.2597-5.3915zm-6.6769 5.824c-0.93786-1.6734 1.2377-4.6113 2.6846-3.6252 1.9043 1.2979 1.6224 4.6688-0.39047 4.6688-0.9401 0-1.9724-0.46959-2.2941-1.0435zm-227.3-7.8516c0-0.57557 0.49242-1.6057 1.0943-2.2892 0.60184-0.68349 1.9759-5.0689 3.0534-9.7454 1.0775-4.6765 3.3176-11.082 4.9778-14.234 2.6436-5.019 2.8633-6.3191 1.7683-10.465-0.68771-2.6036-1.8633-12.681-2.6124-22.393-1.2038-15.607-1.1346-18.344 0.59474-23.546 1.0762-3.2376 2.1884-6.7695 2.4714-7.8486 0.32744-1.2486-1.7502-3.6314-5.713-6.552-5.1736-3.813-6.9932-6.286-10.752-14.612-7.321-16.218-7.1229-26.607 0.68726-36.03l2.4097-2.9072 10.263 10.771c5.6448 5.9239 15.04 14.831 20.879 19.794 19.222 16.339 20.06 17.632 24.235 37.384 6.4142 30.347 12.808 47.528 23.451 63.022 3.3004 4.8045 5.7891 8.9689 5.5304 9.2542-0.25868 0.28527-4.6119-0.22876-9.6738-1.1423-10.754-1.9408-13.174-1.6162-30.555 4.0993-11.391 3.7458-21.491 5.9887-34.399 7.6389-6.7764 0.8663-7.7102 0.84214-7.7102-0.19956zm-13.995-1.6738c-2.8833-1.1084-4.0859-2.7264-5.5908-7.5216-1.0545-3.3602-2.9162-8.1697-4.1372-10.688-7.076-14.594-13.289-30.258-17.191-43.34-5.3405-17.907-8.0178-23.979-11.767-26.688-1.5566-1.1248-3.5246-3.9295-4.3733-6.2326-0.84867-2.3032-2.507-4.9591-3.6853-5.9021-1.1782-0.943-2.9381-3.4117-3.9108-5.486-0.97267-2.0743-3.2382-4.5466-5.0345-5.4941-2.3152-1.2211-3.4387-2.9736-3.8591-6.0195-0.45816-3.3193-1.6516-4.953-5.2456-7.1806-5.9815-3.7074-6.4321-5.5128-1.8184-7.2865 4.8005-1.8455 4.0663-4.0477-2.5138-7.5402-2.8872-1.5324-6.317-4.1197-7.6218-5.7496l-2.3724-2.9634 8.0068 0.8806c7.2781 0.80047 8.0068 0.66116 8.0068-1.5308 0-1.6914-4.3969-5.3152-14.725-12.136-8.099-5.3488-14.637-9.8237-14.53-9.9443 0.10771-0.12061 6.2949 2.1003 13.749 4.9354 13.285 5.0528 16.715 5.223 15.159 0.75256-0.36397-1.046-6.8402-7.3483-14.392-14.005-7.5515-6.6569-13.73-12.359-13.73-12.671 0-0.31236 2.8024 1.1995 6.2275 3.3598 16.28 10.268 33.614 19.795 34.97 19.221 2.8678-1.2136 1.4706-4.1082-5.734-11.879-9.8286-10.601-23.602-27.792-23.602-29.458 0-0.74706 2.8024 1.7655 6.2275 5.5835 3.4251 3.818 12.801 12.527 20.835 19.353 22.962 19.51 24.467 17.879 8.088-8.7612-10.186-16.568-15.693-26.573-14.624-26.573 0.23236 0 2.2201 2.7961 4.4172 6.2135 6.0863 9.4668 35.661 42.186 38.132 42.186 1.1905 0 2.1646-0.59846 2.1646-1.3299 0-0.73144-3.0051-7.9378-6.678-16.014-6.2709-13.789-10.378-24.516-9.386-24.516 0.24059 0 2.6447 4.5126 5.3424 10.028 5.8816 12.025 14.841 26.175 25.448 40.19 4.296 5.6766 7.811 10.572 7.811 10.879 0 0.30688-1.3179 2.4635-2.9288 4.7925-4.1278 5.9681-6.5607 12.973-6.5607 18.89 0 12.995 10.387 34.55 19.345 40.144 1.9786 1.2356 1.9858 1.6578 0.12972 7.6188-1.7564 5.6409-1.8103 8.3423-0.50778 25.453 0.80144 10.528 1.8634 20.344 2.36 21.814 0.6274 1.8564-0.13584 4.8226-2.5018 9.723-1.8726 3.8784-3.4046 7.745-3.4046 8.5923 0 0.84732-0.82965 4.6215-1.8437 8.387-1.2594 4.6768-2.669 7.213-4.4482 8.0032-3.4601 1.5368-3.4731 1.5366-7.7033-0.0896zm3.7646-55.45c5.8076-2.2829 7.5981-4.1208 5.8706-6.0259-0.91047-1.004-3.0787-0.8167-7.5697 0.65406-3.4616 1.1336-8.332 2.0611-10.823 2.0611-3.7387 0-4.5295 0.45676-4.5295 2.6162 0 2.2913 0.77344 2.6091 6.2275 2.5588 3.4251-0.0315 8.296-0.87053 10.824-1.8643zm-5.1898-24.11c4.2077-0.6185 5.3378-1.3118 5.3378-3.2746 0-2.3197-1.0141-2.4842-14.827-2.4043-13.522 0.0781-14.827 0.29532-14.827 2.4678 0 3.7691 10.81 5.1966 24.317 3.2111zm-6.9065-29.052c2.9938-2.0405-0.12525-5.0889-5.2147-5.0965-4.4991-7e-3 -9.0821-0.69785-23.168-3.4938-3.3118-0.65736-3.8551-0.39074-3.8551 1.8917 0 2.1067 1.2272 2.9816 5.926 4.2246 7.7096 2.0396 24.617 3.6293 26.312 2.474zm-3.9449-31.924c-0.30727-1.7441-2.3294-2.7989-7.6664-3.9989-3.987-0.89643-9.437-2.8608-12.111-4.3653-6.0014-3.3764-8.8219-3.5279-8.3056-0.4462 0.58069 3.466 13.251 9.6545 21.444 10.474 6.3561 0.63559 7.0155 0.4704 6.6396-1.6634zm78.777 39.741-2.6522-5.3864 5.8179-8.0629c9.6679-13.399 23.851-27.432 33.2-32.85 4.7129-2.7311 9.7625-6.7834 11.221-9.005 1.4588-2.2216 5.7662-8.694 9.572-14.383 6.032-9.0169 6.7353-10.669 5.4825-12.881-1.8572-3.2796-1.3081-3.7606 5.2199-4.572 2.983-0.37078 5.7412-1.2407 6.1292-1.9331 0.38806-0.69242-0.44085-2.9689-1.842-5.0589-1.4012-2.09-2.1312-3.8068-1.6224-3.8152 0.50884-0.0078 5.0726 1.5692 10.142 3.5058 12.21 4.6646 13.995 3.157 7.0375-5.9426-12.302-16.088-12.865-23.474-0.78611-10.302 4.4534 4.8564 8.5498 8.8297 9.1032 8.8297 2.3215 0 1.9708-3.7702-0.97608-10.494-4.1076-9.372-6.4057-16.637-6.3528-20.084 0.0389-2.5362 0.29533-2.4378 2.9371 1.1278 1.5919 2.1486 4.8599 8.7709 7.2621 14.716 3.1858 7.8847 4.9588 10.81 6.5524 10.81 2.9733 0 2.9146-7.5735-0.18764-24.2-2.8199-15.114-2.7789-14.428-0.75101-12.572 2.2078 2.0206 5.3366 13.43 7.1972 26.244 1.6689 11.494 2.0829 12.522 4.6141 11.451 1.2172-0.51508 2.0645-5.4609 3.1091-18.148 0.78978-9.592 1.8581-18.912 2.3739-20.71 2.6266-9.1575 3.0481 31.097 0.49783 47.535-0.73178 4.7166-0.61029 4.9944 2.0023 4.5784 2.4399-0.38852 3.3928-2.5306 7.7616-17.448 4.8678-16.621 4.983-16.854 5.1011-10.309 0.27804 15.402-7.2094 46.287-18.244 75.256l-4.31 11.315-6.7518-3.7625c-8.5438-4.7612-17.948-6.945-24.933-5.7899-11.664 1.929-34.775 12.121-43.786 19.311-3.1051 2.4773-9.5973 7.067-14.427 10.199-4.8298 3.1324-11.502 8.4954-14.827 11.918-3.3252 3.4224-6.3127 6.2402-6.6389 6.2617-0.3262 0.0215-1.7866-2.3848-3.2453-5.3473zm54.251-39.633c0-2.5496-6.7836-7.7047-8.9385-6.7928-2.8127 1.1903-1.9886 3.9203 1.925 6.3767 4.4245 2.777 7.0135 2.9306 7.0135 0.4161zm16.277-8.7512c0.7319-0.80713 1.0273-2.4259 0.65643-3.5973-0.97952-3.0939-6.4511-9.3244-8.1886-9.3244-2.9465 0-3.016 2.8966-0.15155 6.3198 1.6066 1.9201 3.2496 4.5211 3.6509 5.7802 0.84235 2.6424 2.1418 2.9071 4.0328 0.82168zm38.281-4.3978c2.9663-8.604 0.58784-29.004-3.0894-26.498-1.7379 1.1845-1.3436 28.769 0.42049 29.418 0.81148 0.2983 2.0125-1.0154 2.6689-2.9194zm-18.258-6.0277c-0.99605-6.8692-5.0162-15.577-7.1914-15.577-2.747 0-3.3432 2.5169-1.3791 5.8226 1.0102 1.7002 2.454 5.7949 3.2085 9.0992 1.0601 4.6429 1.9133 6.0079 3.755 6.0079 2.1249 0 2.2991-0.57999 1.607-5.3525z" /><path
       id="path26"
       fill="#494949"
       d="m254.94 337.55c8.5705-1.2721 17.603-4.598 27.849-10.255 6.7748-3.7402 10.772-4.9188 21.715-6.4021 12.85-1.7419 29.09-6.4376 36.21-10.47 10.019-5.6743 40.91-4.8106 58.54 1.6367 12.509 4.5747 20.585 5.2816 30.869 2.702 6.6609-1.6707 12.157-1.9439 26.612-1.323 18.574 0.79791 24.741-0.16108 24.741-3.847 0-2.2046-15.48-10.234-26.689-13.845-5.1383-1.6549-10.704-4.667-14.602-7.9024-3.4642-2.8755-8.2682-5.8315-10.676-6.5689-6.926-2.1214-17.407-1.5874-27.903 1.4217-8.4208 2.414-12.708 2.7519-32.797 2.5848-12.71-0.1057-25.254-0.82125-27.875-1.59-11.971-3.5112-28.84-16.574-31.586-24.46-0.58007-1.6656-1.0547-5.5322-1.0547-8.5923 0-17.005 10.749-35.208 40.44-68.484 13.628-15.274 15.988-18.59 20.014-28.124 5.9891-14.183 14.681-40.879 18.521-56.887 5.108-21.291 5.2964-54.23 0.29954-52.393-0.7538 0.27708-3.0782 5.7303-5.1654 12.118l-3.7949 11.614-0.58885-13.647c-0.40573-9.403-1.2555-15.155-2.7323-18.495-4.5809-10.361-8.3139-6.0111-9.5584 11.137-0.45987 6.3369-1.2284 11.046-1.7078 10.465-0.47943-0.58117-1.7645-4.0927-2.8557-7.8033-2.237-7.6071-6.8756-13.921-9.7661-13.294-3.9551 0.8586-4.5757 4.3686-2.6085 14.751 1.8408 9.715 1.3958 12.729-1.0171 6.8887-2.1167-5.1231-7.566-11.41-9.8895-11.41-4.5003 0-5.6332 7.4915-2.7611 18.257l0.85744 3.2139-3.328-2.8868c-9.7966-8.498-13.64 2.6458-5.2938 15.351 1.9178 2.9195 3.1861 5.3082 2.8185 5.3082s-3.0289-0.65549-5.914-1.4566c-2.8851-0.80116-6.6486-1.0683-8.3633-0.59375-3.1809 0.88041-3.4245 2.8411-1.1083 8.918 0.61484 1.6131 0.32604 2.2892-0.97783 2.2892-1.0177 0-3.262 0.70931-4.9874 1.5762-2.7112 1.3623-3.0504 2.1651-2.4985 5.9151 0.54794 3.7237-0.29157 5.7723-5.9209 14.448-8.9226 13.751-9.566 14.453-17.085 18.643-11.407 6.3557-24.126 19.337-37.526 38.302l-2.592 3.6683-13.42-11.474c-27.341-23.377-54.208-57.525-69.05-87.764-4.9898-10.166-10.032-15.789-12.593-14.044-2.5051 1.7074-0.60689 12.884 4.0085 23.602 2.3983 5.5692 4.1525 10.355 3.8982 10.636-0.4948 0.54565-16.697-18.888-26.101-31.306-3.9248-5.1831-6.5496-7.5216-8.4425-7.5216-6.4077 0-4.2258 7.9232 7.5262 27.33 3.9679 6.5524 6.8749 11.913 6.4601 11.913-1.3494 0-13.674-10.908-22.539-19.949-8.8222-8.9967-12.465-10.639-14.463-6.5222-1.663 3.4268 0.90888 8.8539 8.825 18.622 12.875 15.887 12.748 15.382 2.294 9.1451-5.2192-3.114-11.721-7.3285-14.448-9.3656-6.0788-4.5407-8.4178-4.6691-9.3634-0.51418-1.0412 4.5746 2.1177 9.5813 10.367 16.432 3.8987 3.2376 7.9592 6.9473 9.0234 8.2438 2.1741 2.6489 2.9697 2.8754-10.247-2.9183-7.2611-3.1831-10.836-2.6127-10.836 1.7292 0 3.6301 2.943 6.6652 13.542 13.966 8.0099 5.5173 8.1291 5.6784 5.0413 6.8134-4.7861 1.7594-4.225 6.7925 1.4039 12.591 4.0131 4.1344 4.5024 5.2808 4.0377 9.4606-0.49211 4.4257-0.15016 5.0434 4.923 8.8926 3.9276 2.98 5.4518 5.0162 5.4518 7.2828 0 1.9111 1.2086 4.069 3.0785 5.4966 4.0773 3.1128 6.2892 5.6634 10.563 12.18 1.9572 2.9846 5.4845 7.8803 7.8384 10.879 5.536 7.0533 5.9105 7.9176 11.149 25.729 2.4332 8.2738 5.8852 18.281 7.6709 22.238 1.7858 3.957 3.6677 8.6662 4.1822 10.465 0.51444 1.7986 2.1406 5.0362 3.6136 7.1946 2.4636 3.6097 5.2612 12.105 5.277 16.024 5e-3 1.2186-3.657 1.6351-14.375 1.6351-13.837 0-14.724 0.17004-23.427 4.4928-4.9751 2.471-12.651 5.1809-17.058 6.0219-4.407 0.84102-8.2987 2.0396-8.6483 2.6634s0.22617 2.9722 1.2795 5.2186c1.0534 2.2464 1.7424 4.263 1.5312 4.4814-1.53 1.582-29.004 10.164-34.417 10.75-5.5525 0.60186-7.5161 0.23369-11.063-2.0743-4.4454-2.8924-6.5029-2.7115-6.5029 0.57171 0 1.5551-3.0617 1.8885-17.496 1.905-19.796 0.0226-21.887 0.65701-18.874 5.7269 2.1632 3.6408 2.0871 3.7074-5.7253 5.009-1.2973 0.21614-2.5248 1.3441-2.7279 2.5066-0.33339 1.909 2.7083 2.0876 31.42 1.8444 33.645-0.28498 38.816-1.0075 62.488-8.7319 4.4887-1.4647 13.83-3.1607 20.758-3.769s15.8-1.8041 19.714-2.6576c12.512-2.728 24.552-0.83384 45.751 7.1976 26.904 10.192 44.921 13.543 60.439 11.24zm-30.947-6.6308c-6.4466-1.4488-19.608-5.7165-29.248-9.4838l-17.527-6.8497-16.014 0.14466c-8.8074 0.0795-18.949 0.3739-22.538 0.65405-6.4101 0.5005-14.234-1.8233-14.234-4.2277 0-0.63217 1.3074-1.1494 2.9053-1.1494 5.069 0 27.058-5.0892 44.699-10.345 13.649-4.0665 19.878-5.223 31.277-5.8072 14.376-0.73662 25.538-3.1581 44.309-9.6121 9.3577-3.2175 10.478-3.3295 18.996-1.8997 13.385 2.2465 16.452 2.0237 17.398-1.2636 0.54115-1.8803-0.0951-4.0787-1.9878-6.8676-8.5899-12.657-15.418-25.337-18.703-34.732-3.5088-10.034-9.6097-35.082-9.5853-39.354 0.0165-2.8714 14.179-16.099 24.058-22.469 4.7011-3.0314 10.528-7.1934 12.948-9.249 5.7479-4.8818 29.27-15.964 38.147-17.973 3.9372-0.891 9.3486-1.1887 12.455-0.6853 6.1766 1.001 20.32 7.9431 20.32 9.9737 0 0.72781-5.3119 7.1648-11.804 14.304-24.541 26.988-39.271 47.915-43.471 61.758-1.1436 3.7696-2.0854 10.494-2.0928 14.944-0.0122 7.2919-0.21807 7.9697-2.0855 6.8676-3.0815-1.8187-5.7865-1.4813-5.7865 0.72174 0 1.0695 1.9002 2.8202 4.2228 3.8903s7.7578 5.1816 12.078 9.1364c7.778 7.1197 22.952 16.423 26.787 16.423 2.5328 0 2.4976 0.76024-0.2329 5.0305-1.2211 1.9097-3.6088 6.5117-5.3059 10.227-3.2059 7.0178-3.851 7.4628-15.684 10.817-2.6532 0.75216-9.7341 1.9278-15.735 2.6125-9.0374 1.0311-12.948 2.2746-22.772 7.2403-6.5232 3.2975-14.655 6.8254-18.071 7.8399-8.9969 2.672-24.194 2.4233-37.724-0.61745zm1.0441-10.527c-0.47032-1.556-17.544-8.2346-18.463-7.2219-0.32324 0.35646-0.2963 1.4856 0.0599 2.5091 1.296 3.7243 19.514 8.3898 18.403 4.7127zm18.015-5.5808c0-1.1083-2.8582-2.3168-7.9044-3.3422-4.3474-0.88339-9.7798-2.4703-12.072-3.5264-2.5878-1.1924-4.5882-1.4562-5.2775-0.6961-1.9521 2.1528 0.24829 3.9306 8.2292 6.649 9.0682 3.0888 17.025 3.5167 17.025 0.91565zm-211.93 12.339c-1.2592-1.896 0.15768-2.1356 14.576-2.4645 12.619-0.28786 16.109-0.76139 16.629-2.2568 0.56753-1.631 1.1611-1.6059 4.2955 0.18151 5.2481 2.9928 12.966 1.8589 32.168-4.7265 12.652-4.3387 17.162-5.3745 19.475-4.4726 3.6304 1.4153 4.8717 4.4444 1.8208 4.4431-1.1961-5.1e-4 -10.718 2.3558-21.161 5.2362-22.718 6.2665-31.983 7.4745-51.587 6.7258-11.824-0.45156-15.104-0.99093-16.217-2.6663zm371.41-19.086c-4.9663-1.7878-12.522-3.9212-16.79-4.7409-9.2621-1.7787-38.535-0.89581-43.513 1.3124-1.8846 0.83587-3.6587 1.2637-3.9426 0.95067-0.81471-0.89845 2.6834-7.6561 6.0069-11.604 3.9002-4.6331 8.3072-4.6649 19.837-0.14293 7.9259 3.1085 11.064 3.5342 31.345 4.2524 19.068 0.67517 23.028 1.1652 25.725 3.1829 1.7532 1.3117 5.6366 2.4885 8.6296 2.6152 6.6434 0.28115 6.9746 3.319 0.62321 5.7159-6.9833 2.6354-18.009 2.0266-27.921-1.5416zm43.652-0.2153c-5.8432-0.71307-6.2275-0.9829-6.2275-4.3734 0-7.7554 3.3802-7.6351 24.024 0.8551 13.761 5.6593 8.4123 6.7167-17.797 3.5183zm-331.74-3.916c-0.91335-2.6248-1.4155-2.293 6.3351-4.1865 3.5388-0.86453 10.478-3.5696 15.42-6.0112 8.8708-4.3823 9.1769-4.4344 23.814-4.0573 8.155 0.21012 15.847 0.84874 17.094 1.4191 2.1336 0.97645 2.1075 1.1018-0.44722 2.144-4.9967 2.0384-26.611 7.8642-37.998 10.242-15.012 3.1347-23.231 3.2874-24.218 0.45zm316.32-12.567c-2.3418-2.89-6.656-2.9429-9.2219-0.11316-1.7153 1.8916-4.741 2.1356-23.154 1.8672-25.532-0.37224-33.751-1.9852-15.373-3.0168 7.1335-0.40041 16.738-1.9534 22.48-3.6347 12.245-3.5857 20.326-3.031 27.989 1.9213 5.901 3.8137 6.5514 6.0923 2.613 9.1542-2.5279 1.9654-2.6903 1.9174-3.0736-0.9069-0.22259-1.64-1.2394-4.012-2.2597-5.2711zm-6.8251 4.2514c0-1.0595 0.93412-2.1247 2.0758-2.3672 1.4565-0.30932 2.0758 0.39698 2.0758 2.3672 0 1.9702-0.61936 2.6765-2.0758 2.3672-1.1417-0.24247-2.0758-1.3077-2.0758-2.3672zm-226.54-7.5216c1.1876-3.1396 2.5087-7.5488 4.7932-15.998 1.066-3.9424 2.983-8.7862 4.2601-10.764 1.944-3.0107 2.1286-4.3682 1.134-8.3407-0.65339-2.6096-1.8394-12.945-2.6357-22.967-1.425-17.936-1.404-18.338 1.3329-25.62 2.028-5.3958 2.3854-7.5434 1.3203-7.9349-9.1182-3.3518-20.392-22.821-21.178-36.572-0.37213-6.5102 0.0586-8.4406 3.2105-14.387 2.0022-3.7772 4.0298-6.8667 4.5059-6.8658 0.4761 1e-3 5.1514 4.5797 10.389 10.175s15.328 15.16 22.421 21.255c18.39 15.801 18.813 16.515 24.406 41.233 6.7572 29.864 10.676 40.14 21.863 57.325 3.687 5.6639 6.4995 10.523 6.25 10.798-0.24946 0.27511-3.2818-0.0913-6.7384-0.81421-9.5239-1.9918-19.115-1.5834-26.237 1.1174-12.589 4.7738-35.56 9.9443-46.574 10.483-2.792 0.13664-3.2364-0.23737-2.523-2.1233zm-16.938-1.0421c-1.5192-1.1735-3.4002-4.9855-4.4786-9.0767-1.0227-3.8794-3.0555-9.0027-4.5174-11.385-4.6584-7.5913-10.362-22.099-16.286-41.428-5.0371-16.434-6.4303-19.577-11.136-25.125-2.9584-3.4878-5.3788-7.1044-5.3788-8.0369 0-0.93248-1.5705-3.3301-3.49-5.328s-3.8055-4.7288-4.1911-6.0686c-0.38559-1.3398-2.267-3.1513-4.1808-4.0255-3.4367-1.5698-5.5299-5.3893-4.2274-7.7136 0.36878-0.65803-2.1317-3.4165-5.5565-6.13l-6.227-4.9335 3.8538-1.7342c4.9115-2.2101 4.911-4.8687-1e-3 -7.0288-5.0954-2.2406-10.379-6.3132-10.379-8 0-0.83384 2.8288-1.1753 7.3895-0.89201 11.789 0.73229 10.407-1.9185-6.8396-13.122-8.176-5.3114-14.687-9.854-14.468-10.095 0.21838-0.24082 5.8491 1.6031 12.513 4.0975 20.568 7.6996 21.983 5.64 5.9487-8.6575-13.244-11.809-20.802-19.464-16.301-16.51 1.6883 1.1081 11.147 6.8186 21.019 12.69 16.083 9.5655 20.393 11.257 20.393 8.0028 0-0.55373-5.2707-7.1413-11.713-14.639-14.141-16.459-20.6-24.872-19.784-25.772 0.33436-0.36874 4.4948 3.3891 9.2455 8.3508 10.175 10.627 33.702 30.605 36.042 30.605 2.9704 0 1.7013-3.6562-4.6665-13.444-8.7135-13.393-20.2-33.642-19.514-34.399 0.31259-0.34471 2.8944 2.7736 5.7374 6.9295 7.9191 11.576 34.343 40.913 36.851 40.913 1.2105 0 2.2009-0.39775 2.2009-0.88388 0-0.48612-3.4682-8.58-7.7072-17.986-8.423-18.691-12.025-30.847-5.1084-17.241 6.4482 12.685 16.887 29.538 25.485 41.144 4.4489 6.0055 8.5588 11.638 9.1333 12.517 0.68262 1.0443-0.48184 4.133-3.361 8.9149-2.4749 4.1106-4.6881 9.641-5.0504 12.62-1.3848 11.385 6.1331 30.939 15.445 40.172 4.3498 4.3128 5.6015 6.3462 4.9607 8.0585-2.4469 6.5384-2.6878 12.699-1.2207 31.211 0.86957 10.973 1.953 20.614 2.4076 21.426 0.45458 0.81113-0.51705 3.7138-2.1592 6.4502-1.6421 2.7365-3.6533 8.7177-4.4693 13.291-2.2751 12.753-8.9958 17.836-16.212 12.262zm1.4983-53.808c7.3835-1.8286 10.083-3.3682 10.083-5.751 0-2.8358-1.4304-3.1628-4.8936-1.1188-1.3009 0.76777-5.6626 1.7979-9.6927 2.2892-5.6395 0.68747-7.4194 1.4206-7.7264 3.1824-0.33327 1.9125 0.44488 2.2642 4.7294 2.1374 2.8205-0.0835 6.1958-0.41615 7.5006-0.73929zm3.262-26.684c4.3474-2.7924 1.5938-3.4969-13.345-3.414-11.198 0.0621-15.42 0.51729-15.42 1.6622 0 0.86718 0.84432 1.934 1.8763 2.3707 3.1003 1.312 24.655 0.81589 26.889-0.61888zm-10.297-28.82c1.2811-2.2858-1.9313-3.7342-8.3853-3.7808-3.262-0.0235-9.6453-0.91044-14.185-1.971-5.4551-1.2744-8.653-1.4884-9.4302-0.63134-2.0432 2.2532 0.79738 3.8548 10.449 5.8913 10.922 2.3045 20.414 2.5211 21.552 0.49177zm-4.4223-30.709c-0.33209-1.9017-1.9296-2.7048-6.9419-3.4899-3.5808-0.56089-9.2327-2.4811-12.56-4.2672-7.0301-3.774-8.7782-4.0163-8.7782-1.2165 0 2.9589 14.035 9.7734 21.994 10.679 6.1347 0.69823 6.6795 0.55038 6.2856-1.7056zm81.006 27.361c10.123-14.47 21.539-26.048 33.056-33.525 7.8605-5.1032 12.15-8.8208 14.184-12.291 1.6032-2.7365 5.4796-8.6511 8.6143-13.143 5.0563-7.2462 5.5305-8.4685 4.2022-10.832-1.9312-3.4362 0.22482-5.152 6.5096-5.1803 4.9994-0.0225 5.9334-2.5825 2.4785-6.7926-3.2702-3.9849-0.66803-4.4571 7.0838-1.2852 4.0375 1.652 8.5419 3.3265 10.01 3.7211 4.1598 1.1182 3.362-2.89-1.9742-9.9187-5.2208-6.8766-9.2581-15.326-7.9907-16.724 0.46164-0.50909 4.5545 3.14 9.0952 8.1091 6.0687 6.6411 8.606 8.6485 9.5777 7.577 0.97164-1.0715 0.19599-4.0039-2.9278-11.069-2.3373-5.2861-4.7374-12.113-5.3336-15.171-2.1585-11.07 3.049-4.848 10.028 11.982 3.2475 7.8316 5.2754 11.216 6.7253 11.225 2.8069 0.01635 2.7175-6.2519-0.31514-22.097-2.9132-15.222-2.9726-16.712-0.57826-14.521 2.3133 2.1172 6.077 15.664 7.1009 25.558 1.0732 10.37 1.6542 12.38 3.5785 12.38 2.1921 0 2.5401-1.8321 4.2246-22.238 1.6259-19.697 2.7966-24.348 4.1404-16.449 0.71525 4.2045 0.0714 36.335-0.95794 47.803-0.19375 2.1586 0.37857 3.379 1.726 3.6805 1.636 0.36605 2.9464-2.8305 6.954-16.965 6.9501-24.511 8.2098-25.3 5.8206-3.6462-2.2026 19.963-9.0939 44.966-20.614 74.791l-1.8699 4.841-7.4273-3.8329c-15.366-7.9299-27.626-7.3905-47.147 2.0746-5.1082 2.4768-9.7799 4.5032-10.382 4.5032-0.60165 0-4.2517 2.4461-8.1111 5.4358-3.8595 2.9897-11.288 8.2735-16.507 11.742s-12.381 9.1688-15.915 12.667l-6.4258 6.3612-2.7269-5.9399-2.7269-5.9399zm51.245-26.156c1.498-1.652 0.77862-2.8472-3.4477-5.7276-3.291-2.243-4.5506-2.5374-5.6344-1.3172-1.0759 1.2114-0.58018 2.2974 2.1627 4.7377 3.6318 3.2313 5.5126 3.8584 6.9194 2.3071zm16.511-9.0517c1.7072-1.8826 0.85904-5.6082-2.1849-9.5975-3.0426-3.9876-5.6832-5.0871-6.9195-2.8812-0.35247 0.62895 0.55014 2.6543 2.0058 4.5009 1.4557 1.8465 3.449 4.6168 4.4296 6.1561 0.98058 1.5393 2.1816 2.3591 2.6689 1.8217zm38.211-3.0862c1.4093-2.5147 2.0946-18.97 0.98358-23.617-0.60199-2.5181-1.81-4.5784-2.6844-4.5784-1.2322 0-1.5898 3.222-1.5898 14.322 0 13.338 1.0677 17.84 3.2906 13.873zm-17.16-4.412c0-4.1859-3.7488-15.065-5.9472-17.259-4.0962-4.0881-5.0146-0.65582-1.7357 6.4866 1.616 3.52 2.9381 7.7718 2.9381 9.4486 0 2.1765 0.67864 3.0486 2.3724 3.0486 1.3048 0 2.3724-0.77613 2.3724-1.7247z" /><path
       id="path28"
       fill="#333"
       d="m262.63 336c2.6096-0.6711 10.005-3.9297 16.434-7.2413 9.731-5.0124 13.797-6.3239 24.268-7.8283 15.871-2.2803 19.123-3.1962 38.284-10.783 14.151-5.6033 40.439-4.7661 58.077 1.8497 12.379 4.6431 19.269 5.2737 29.522 2.702 6.9092-1.733 12.199-2.0076 26.59-1.3803 18.386 0.80129 25.083-0.105 25.083-3.3948 0-2.6942-10.123-8.3344-23.29-12.976-6.9641-2.455-13.914-5.9741-17.793-9.009-3.5006-2.7392-8.1792-5.6626-10.397-6.4965-6.1772-2.3227-16.48-1.8138-26.882 1.3278-8.3977 2.5362-12.01 2.8163-33.393 2.5884-20.011-0.21322-25.21-0.67853-31.434-2.8134-9.1537-3.1399-20.85-11.423-25.407-17.991-3.0938-4.46-3.4004-5.8499-3.3896-15.368 0.0107-9.5929 0.38385-11.228 4.4762-19.622 5.9157-12.134 18.295-28.891 36.124-48.897 11.822-13.266 15.328-18.104 18.544-25.59 6.541-15.224 14.819-40.414 18.634-56.703 5.6001-23.911 6.2892-52.6 1.2633-52.6-1.5281 0-2.9466 2.9357-5.5308 11.446l-3.4756 11.446-0.76225-13.268c-0.81506-14.188-3.5246-23.011-7.3028-23.781-2.7976-0.56998-4.0721 3.572-5.1009 16.577-0.46382 5.8637-1.1975 10.661-1.6303 10.661s-1.3942-2.5018-2.1363-5.5595c-1.4909-6.1428-5.7297-13.7-8.9065-15.879-1.5801-1.0839-2.5306-0.88262-4.1227 0.87316-1.9599 2.1613-1.9631 2.8475-0.0609 12.992 1.1046 5.8908 1.8483 10.887 1.6528 11.103-0.19554 0.21564-2.0862-2.5533-4.2014-6.1532-4.1731-7.1021-7.1853-9.587-10.117-8.3462-2.9305 1.2401-3.5565 6.8301-1.5425 13.775 2.0268 6.9894 1.4987 7.6451-3.0085 3.7353-3.5764-3.1024-5.9761-3.3163-7.9393-0.70764-1.9559 2.5989-0.66344 8.2686 3.5583 15.61 3.8361 6.6706 3.8398 6.6672-4.7353 4.4843-5.309-1.3514-6.3124-1.2675-8.0741 0.67521-1.6614 1.8322-1.7575 2.6671-0.55209 4.7957 2.028 3.5811 1.8235 5.229-0.6489 5.229-1.1596 0-3.348 0.95746-4.863 2.1277-2.174 1.6792-2.6094 2.9277-2.0661 5.9236 0.57369 3.1633-0.58376 5.8222-6.9448 15.954-7.1955 11.461-8.1969 12.49-17.464 17.949-10.199 6.0084-23.995 19.898-33.695 33.924-2.4845 3.5927-4.8202 6.5322-5.1906 6.5322s-7.6667-6.1477-16.214-13.662c-27.078-23.804-51.322-55.081-66.712-86.065-5.1706-10.41-8.6636-14.402-11.538-13.186-2.7576 1.1669-1.8213 8.334 2.6176 20.037 2.3195 6.1154 4.4895 12.002 4.8221 13.081 0.86988 2.8224-17.447-18.206-25.237-28.973-5.0223-6.9415-7.2048-9.0176-9.1574-8.7108-1.8804 0.29544-2.6571 1.4535-2.9144 4.3454-0.27103 3.0459 1.6848 7.4537 8.5998 19.381 4.9229 8.491 8.9507 15.73 8.9507 16.087 0 1.5078-11.783-8.8041-21.584-18.89-11.548-11.883-15.431-13.416-16.163-6.379-0.44081 4.2396 2.5804 9.1362 13.271 21.51 3.8878 4.4996 6.7954 8.4824 6.4615 8.8507-0.64681 0.71329-16.929-8.9086-24.819-14.666-4.3911-3.2046-4.8708-3.2979-6.6827-1.2998-1.7959 1.9805-1.8007 2.5026-0.05907 6.5301 1.0716 2.4782 6.0461 7.9923 11.465 12.709 5.2647 4.5823 9.3956 8.5261 9.1798 8.7641-0.2158 0.23798-4.8308-1.372-10.256-3.5778-8.9509-3.6395-10.035-3.821-11.72-1.9626-3.055 3.369 0.45865 8.1289 11.519 15.604 8.175 5.5256 9.398 6.7664 7.2294 7.3345-6.5351 1.712-5.5132 9.7028 1.854 14.496 3.4725 2.2594 3.9102 3.0401 2.8018 4.9973-2.0471 3.6149-0.1903 8.2776 4.7978 12.048 3.0476 2.3036 4.802 4.7799 5.289 7.4653 0.46849 2.5832 1.908 4.6995 4.0306 5.9258 1.816 1.0492 5.437 5.2949 8.0466 9.4349 2.6096 4.1401 7.0238 10.297 9.8092 13.682 4.2752 5.1955 5.8763 8.8814 10.274 23.651 5.2312 17.57 12.185 35.48 16.174 41.654 1.1772 1.8223 2.9469 6.4036 3.9328 10.181l1.7924 6.8676h-14.888c-13.249 0-15.497 0.3373-20.422 3.0653-6.8104 3.7723-15.619 6.9265-22.686 8.1238-6.4294 1.0892-7.4813 2.5534-5.2512 7.3092 0.93097 1.9853 1.6927 3.913 1.6927 4.2837 0 0.82475-24.461 9.2701-32.527 11.23-5.2854 1.2843-6.4007 1.1112-11.791-1.8308-6.1114-3.3354-7.8743-3.3478-7.8743-0.0553 0 1.5563-3.061 1.885-17.556 1.885-19.206 0-21.557 0.76583-18.441 6.0089 1.9384 3.2624 1.7006 3.4476-6.0991 4.747-1.2973 0.21614-2.519 1.3107-2.7149 2.4324-0.31606 1.8098 3.1538 2.0145 30.827 1.8183 33.246-0.23565 33.676-0.29414 62.157-8.4493 7.5704-2.1676 16.509-3.9431 19.864-3.9454 3.3547-3e-3 10.903-0.94783 16.775-2.1012 13.507-2.6531 29.608-1.752 39.366 2.2032 15.203 6.1625 32.264 11.941 40.509 13.721 9.618 2.076 31.346 2.298 38.743 0.39581zm-37.282-4.4641c-5.318-1.1125-18.321-5.3194-28.896-9.3486-17.244-6.5704-20.487-7.3915-31.442-7.9623-7.2694-0.37879-15.79 0.0377-21.043 1.0286-7.8374 1.4784-9.4272 1.4125-14.177-0.58797-2.9424-1.2392-5.349-2.6459-5.3479-3.126 1e-3 -0.48009 6.6489-2.1834 14.773-3.7851 8.1241-1.6017 22.402-5.2065 31.729-8.0107 13.573-4.0809 19.798-5.2496 31.192-5.8556 14.3-0.76069 25.452-3.1524 44.79-9.6062 10.21-3.4073 10.597-3.4374 22.296-1.7299 10.557 1.5409 12.114 1.5079 13.746-0.29146 2.2088-2.4358 1.5362-4.1188-6.377-15.958-9.9028-14.816-16.923-33.419-21.225-56.247l-2.1638-11.481 4.7702-4.781c8.8895-8.9097 11.765-11.366 17.708-15.125 3.262-2.0635 9.7322-6.5758 14.378-10.028 4.646-3.4517 14.788-9.0741 22.538-12.494 12.57-5.5475 15.114-6.227 23.58-6.2979 8.2987-0.0695 10.494 0.44545 17.496 4.1032 4.4037 2.3004 8.0068 4.8617 8.0068 5.6916 0 0.82997-6.8318 9.2491-15.182 18.709-22.306 25.272-30.591 36.579-37.045 50.557-3.251 7.041-4.0194 10.371-4.4704 19.37-0.46995 9.3792-0.80792 10.748-2.468 9.9925-6.4857-2.9499-7.8339 0.76002-1.433 3.9431 2.5903 1.2881 7.8098 5.2418 11.599 8.786 6.6143 6.1866 23.777 16.773 27.192 16.773 2.4974 0 2.0219 1.7306-2.5214 9.1759-2.2898 3.7524-4.4702 8.1708-4.8452 9.8187-0.37504 1.6478-1.8377 3.3606-3.2504 3.8062-11.68 3.6838-17.088 4.8978-26.849 6.0267-9.4968 1.0983-13.068 2.245-23.108 7.4209-6.5316 3.367-14.555 6.8398-17.829 7.7174-8.4294 2.2591-24.785 2.1664-36.119-0.20468zm-0.67029-11.068c0.40604-0.72455 0.0373-1.5506-0.81964-1.8356-0.85686-0.28507-4.2268-1.49-7.4888-2.6777-3.262-1.1877-6.8651-2.4906-8.0068-2.8953-1.3482-0.47794-2.0758-0.0512-2.0758 1.2178 0 2.2592 10.263 7.5082 14.681 7.5082 1.6347 0 3.3044-0.59281 3.7104-1.3173zm17.702-5.0712c0.96199-1.7165 0.12421-2.0907-9.2199-4.1175-3.813-0.82706-8.7219-2.3282-10.909-3.3358-2.7712-1.2769-4.2156-1.4047-4.7665-0.42167-1.1226 2.003 0.4224 3.2349 7.1876 5.7309 8.0458 2.9685 16.661 4.0116 17.708 2.1441zm-211.95 11.502c-1.1417-1.3136-2.0758-2.7949-2.0758-3.2919 0-0.49697 7.4081-0.49922 16.462-5e-3 13.953 0.76163 16.565 0.60376 17.136-1.0358 0.58832-1.6907 1.291-1.6668 5.5778 0.19022 5.981 2.5909 11.429 1.5727 33.815-6.3197l14.9-5.253 8.7834 5.9888-5.3378 0.84409c-2.9358 0.46423-9.0743 2.0515-13.641 3.5272-8.0693 2.6075-28.395 7.4884-35.586 8.5454-1.9572 0.2877-11.298 0.22495-20.758-0.13945-14.606-0.56261-17.513-1.0227-19.276-3.0509zm370.9-18.948c-4.6093-1.7391-12.883-3.8316-18.386-4.6499-12.198-1.814-34.238-0.752-41.143 1.9824-2.7727 1.0981-5.0413 1.5493-5.0413 1.0026 0-1.6642 6.5735-12.5 8.8166-14.533 2.9808-2.7019 9.3556-2.0377 19.652 2.0476 8.0894 3.2096 10.833 3.5853 30.248 4.141 17.803 0.5096 22.083 1.0198 25.752 3.0706 2.4205 1.3527 6.7743 2.4594 9.675 2.4594 4.6833 0 5.2048 0.29193 4.656 2.6062-0.58309 2.4589-3.7712 3.942-12.208 5.679-4.8279 0.99398-13.08-0.4322-22.022-3.8059zm43.67 0.75997c-4.8333-7e-3 -5.0413-0.1722-5.0413-4.0171 0-2.2057 0.50781-5.0567 1.1285-6.3356 1.0774-2.22 1.4669-2.211 8.5998 0.1973 12.347 4.1687 23.485 9.1741 23.485 10.554 0 0.82687-4.1946 0.99112-11.565 0.45286-6.3609-0.46452-13.834-0.84763-16.607-0.85136zm-330.98-5.3461c-0.26737-1.5496 1.3628-2.4935 6.4926-3.7595 3.7673-0.92974 10.864-3.6368 15.77-6.0158 8.7443-4.2398 9.2305-4.3207 24.576-4.0865 18.327 0.27962 22.395 2.0829 12.072 5.3508-30.902 9.7821-58.016 13.699-58.911 8.5111zm318.4-5.7897c1.0059-2.8908-2.7776-8.4926-5.736-8.4926-1.4015 0-3.5496 0.9994-4.7735 2.2209-1.9548 1.9508-4.8869 2.1757-24.113 1.8494-26.138-0.44371-34.391-2.0134-15.959-3.0355 7.0391-0.39033 16.839-1.9565 22.538-3.6017 11.826-3.4145 21.01-3.1672 27.855 0.75022 6.3359 3.626 7.6233 6.1828 4.8283 9.5888-2.5823 3.1467-5.6499 3.623-4.6399 0.72053zm-8.7678-1.6243c-0.70086-2.3213 3.287-3.7085 4.49-1.5619 0.54351 0.9698 0.70676 2.2655 0.36278 2.8792-0.87792 1.5665-4.2592 0.6486-4.8528-1.3174zm-226.35-8.5099c0.96392-1.6223 2.5325-6.6364 3.4857-11.142 0.95319-4.506 3.1135-10.79 4.8007-13.965 2.5383-4.7765 2.8594-6.3764 1.8608-9.2727-0.66372-1.9251-1.8028-12.12-2.5314-22.655-1.2535-18.126-1.194-19.527 1.1084-26.074l2.4331-6.9183-4.4725-3.1136c-6.7583-4.7049-11.907-12.813-15.596-24.561-4.1955-13.362-3.6538-17.917 3.3631-28.279l2.9693-4.3848 10.82 11.739c5.9507 6.4564 15.909 16.155 22.13 21.552 6.2208 5.3969 13.002 11.938 15.07 14.535 4.0926 5.1402 4.3626 5.9933 10.368 32.752 4.6429 20.687 12.398 39.794 21.252 52.364 3.0029 4.2627 5.4597 8.3047 5.4597 8.9822 0 0.67758-1.4679 0.87552-3.262 0.43988s-7.5323-1.1689-12.752-1.6294c-8.5012-0.75012-10.663-0.42477-20.758 3.1239-15.002 5.2734-31.302 8.831-42.434 9.2615-4.9992 0.19331-5.0446 0.15555-3.3161-2.7537zm-17.171 0.30215c-1.3563-0.80049-3.0374-4.3534-4.178-8.8297-1.0496-4.1197-3.3911-9.8449-5.2033-12.723s-3.6889-6.704-4.1706-8.5027-2.0809-5.6249-3.554-8.5027c-1.4731-2.8778-5.2401-13.759-8.3711-24.179-5.017-16.698-6.3037-19.64-10.84-24.787-2.8308-3.2118-5.1469-6.7895-5.1469-7.9504s-1.5938-3.4101-3.5418-4.9984-3.8488-4.2007-4.2242-5.8055c-0.37534-1.6048-2.3846-3.8008-4.465-4.88-2.851-1.479-3.9286-3.0238-4.3756-6.2731-0.45898-3.3361-1.6452-4.963-5.2456-7.1946-6.0091-3.7245-6.5624-5.8548-1.9785-7.617 5.0927-1.9578 4.577-4.3382-1.4936-6.8949-2.8375-1.195-6.3871-3.6142-7.8879-5.376-2.3604-2.7707-2.4716-3.3121-0.82349-4.0095 1.0479-0.44345 4.464-0.20084 7.5914 0.53913 3.8823 0.9186 6.0624 0.92016 6.8722 5e-3 1.4682-1.6592 0.29637-2.6288-16.607-13.741-14.365-9.4435-14.26-9.3644-13.509-10.193 0.28993-0.31973 5.3164 1.397 11.17 3.8149 11.588 4.7865 19.55 6.8616 19.521 5.0877-0.0342-2.1176-1.7725-3.9359-14.809-15.49-16.369-14.508-19.593-19.038-8.0246-11.277 3.1087 2.0856 11.747 7.3835 19.196 11.773 21.38 12.599 22.167 11.055 4.5961-9.0099-12.437-14.202-19.719-24.217-18.547-25.509 0.29294-0.32306 3.9741 3.0736 8.1804 7.5482 10.037 10.677 36.393 32.706 37.901 31.678 1.7537-1.1952 1.4306-4.0253-0.68005-5.957-4.1008-3.7535-28.174-45.71-26.227-45.71 0.23165 0 3.6525 4.5971 7.6018 10.216 8.2723 11.769 34.777 42.109 36.786 42.109 2.61 0 2.8054-2.6694 0.46126-6.2998-2.6527-4.1083-13.732-30.501-14.928-35.56l-0.773-3.2703 2.1385 2.8566c1.1762 1.5711 4.4462 7.5263 7.2667 13.234 4.7461 9.6041 18.339 30.382 27.989 42.783l4.0783 5.2411-4.5478 7.4607c-7.5373 12.365-7.4135 19.858 0.63543 38.473 3.6477 8.4363 9.6948 16.285 13.673 17.748 1.2283 0.45151 1.2171 1.7437-0.0587 6.7688-1.7417 6.8599-0.95909 35.229 1.2909 46.799 1.0831 5.5694 0.94 6.7517-1.2227 10.101-1.3472 2.0864-3.3643 7.9973-4.4825 13.135-1.1182 5.138-3.015 10.504-4.2151 11.925-2.4 2.8408-9.0231 3.4833-12.818 1.2434zm3.9804-55.47c6.3016-1.8683 8.6171-3.7041 7.4034-5.8698-0.54644-0.97504-1.4964-1.014-3.0056-0.12336-1.2136 0.71627-5.7751 1.8596-10.137 2.5408-8.5592 1.3367-9.5173 1.7888-8.3198 3.9256 1.0267 1.832 6.9562 1.6324 14.059-0.47331zm0.59709-25.674c5.4365-2.4045 1.2639-3.3901-13.066-3.0865-8.0238 0.16999-14.856 0.38026-15.182 0.46723-0.3262 0.087 0.44305 1.0224 1.7094 2.0787 2.6402 2.2022 21.895 2.5944 26.539 0.54061zm-9.9129-28.616c1.0905-1.9458-0.75483-2.5588-11.946-3.968-5.7974-0.73003-12.387-1.9165-14.645-2.6365-2.7092-0.86426-4.503-0.86893-5.2785-0.0137-2.0857 2.3001 0.75766 3.7224 11.615 5.8105 11.956 2.2992 19.255 2.5903 20.254 0.80781zm-4.9906-29.616c1.8533-2.0769 0.67458-2.8834-6.4845-4.4367-4.0558-0.87994-9.9923-3.063-13.192-4.8512-4.1483-2.3182-6.184-2.8478-7.0929-1.8455s-0.61223 1.9621 1.0338 3.3442c5.585 4.6894 23.629 10.15 25.736 7.7891zm79.214 38.767-2.7418-6.4555 7.8584-10.39c11.137-14.725 20.408-23.777 30.111-29.4 8.7187-5.0525 10.332-6.8217 21.128-23.163 6.8899-10.43 7.3163-11.639 5.0041-14.188-2.0717-2.2846 0.79824-4.0858 6.5513-4.1114 5.6632-0.02525 6.9111-2.8874 3.1725-7.276-1.4986-1.7592-2.4239-3.5304-2.056-3.936 0.58188-0.64171 13.079 3.6562 19.002 6.535 1.4032 0.68205 2.2974 0.33851 2.7879-1.071 0.46227-1.3285-1.0708-4.3189-4.2608-8.3114-5.0496-6.3197-7.335-10.39-8.8258-15.72-1.3796-4.9321 1.1728-3.3892 9.3973 5.6808 10.197 11.245 12.667 10.665 7.1729-1.6824-4.1069-9.23-7.173-19.781-6.094-20.97 1.8375-2.0264 4.8325 2.2588 10.274 14.7 3.4903 7.9799 6.6519 13.635 7.449 13.324 1.8463-0.72019 1.3413-12.055-1.0702-24.019-1.0387-5.1533-1.7056-10.746-1.482-12.427l0.40662-3.0573 2.0541 3.3547c2.6525 4.332 6.8143 22.286 6.8143 29.397 0 6.0012 2.3878 9.7172 4.3918 6.8346 0.63139-0.90819 1.8239-10.481 2.6501-21.273 0.82617-10.792 1.7439-19.899 2.0394-20.238 1.2547-1.439 2.6747 3.7302 3.386 12.326 0.67373 8.1418-0.96626 34.635-2.4137 38.992-0.29652 0.89258-0.0303 2.5058 0.5917 3.585 1.9862 3.4464 4.0716-0.85911 8.87-18.314 2.4724-8.9932 4.9645-16.911 5.538-17.594 1.6266-1.9383 1.2471 8.6476-0.83599 23.324-2.7893 19.652-19.353 72.756-22.693 72.756-0.54815 0-2.0495-0.80442-3.3364-1.7876-1.2869-0.98317-5.6728-3.1211-9.7466-4.7509-6.02-2.4084-9.0183-2.8411-16.014-2.3108-12.545 0.95093-32.954 9.6441-46.303 19.722-4.3258 3.266-11.225 8.0141-15.332 10.551-4.107 2.5372-10.116 7.5844-13.354 11.216-3.2375 3.6316-6.2155 6.6028-6.6178 6.6028-0.40231 0-1.9653-2.905-3.4733-6.4555zm53.888-39.243c0.91412-1.6311-7.217-8.3919-8.7974-7.3148-2.1424 1.4602-1.37 2.9605 2.982 5.7922 4.8364 3.1469 4.8963 3.1625 5.8154 1.5226zm17.247-10.615c0-2.7422-3.6423-9.0492-6.0448-10.467-3.0879-1.8224-4.4246-0.51803-2.4791 2.4191 0.81111 1.2245 2.3936 3.8415 3.5166 5.8155 2.0208 3.5521 5.0073 4.8836 5.0073 2.2325zm38.254-8.8518c0.86753-10.551-0.17771-19.862-2.2297-19.862-1.2619 0-1.625 2.7772-1.625 12.427 0 6.8349-0.0282 12.869-0.0626 13.408-0.0345 0.5396 0.68986 1.1552 1.6096 1.368 1.237 0.28619 1.8377-1.6248 2.3077-7.3415zm-18.806 3.9054c1.6217-2.8936-4.8817-19.843-7.6136-19.843-1.5962 0-1.4604 4.3767 0.19238 6.1993 0.74318 0.81957 1.9964 4.2922 2.7849 7.7169 1.3944 6.0562 3.2409 8.4166 4.6363 5.9266z" /></g><g
     id="g38"
     fill="#e3dbdb"><path
       id="path32"
       d="m269.3 272.85c-11.936-5.788-12.115-5.8193-38.054-6.6575-12.88-0.41619-23.693-1.0184-24.029-1.3383-0.33612-0.31986-0.0562-1.6547 0.62203-2.9662 1.5177-2.9348 1.5264-4.8646 0.066-14.631-1.543-10.319-2.6645-32.331-1.8902-37.1 0.34101-2.1003 1.3659-5.8645 2.2776-8.3648l1.6576-4.546-2.8905-2.2357c-8.5162-6.587-14.231-14.965-17.763-26.041-2.335-7.3226-2.6164-10.897-1.2741-16.182 1.2345-4.8611 4.4692-10.912 6.1266-11.46 0.52647-0.17416 6.7834 5.4164 13.904 12.423 7.1209 7.007 16.443 15.752 20.715 19.433 8.9798 7.7376 14.348 13.459 15.75 16.787 0.54234 1.2874 3.1328 10.99 5.7565 21.562 7.8401 31.59 12.143 42.675 23.319 60.072 1.4867 2.3144 2.446 4.1799 2.1318 4.1456-0.31424-0.0342-3.2058-1.3398-6.4258-2.9012z" /><path
       id="path34"
       d="m226.85 330.36c-7.0701-1.3011-13.535-3.3279-31.957-10.018-18.544-6.7348-26.602-8.3526-37.931-7.6146-18.272 1.1904-26.12 1.3161-27.749 0.44464-0.90684-0.48532-1.52-1.0112-1.3627-1.1685 0.15736-0.15736 6.6895-1.754 14.516-3.5482 7.8264-1.7941 20.23-4.9156 27.564-6.9366 15.505-4.2728 18.609-4.8712 30.94-5.9656 15.537-1.3789 30.832-4.6107 45.006-9.5096 8.5378-2.9509 15.257-3.448 25.178-1.8625 8.3072 1.3276 10.935 1.1004 12.943-1.1192 1.1623-1.2843 1.2135-1.8403 0.43695-4.7438-0.48381-1.8089-2.8987-6.4869-5.3665-10.396-11.534-18.268-17.185-32.898-22.672-58.699l-2.1013-9.8794 7.1945-6.9522c3.957-3.8237 9.1431-8.3404 11.525-10.037 2.3816-1.6968 8.776-6.2545 14.21-10.128 6.4537-4.601 13.432-8.7668 20.125-12.014 16.559-8.0337 17.474-8.2986 28.906-8.3723 10.796-0.0696 12.74 0.45116 20.668 5.5384l3.4835 2.2353-2.3703 3.0334c-1.3037 1.6684-8.3119 9.949-15.574 18.401-28.96 33.707-37.82 48.808-38.86 66.229-0.56624 9.4883-0.58781 9.5459-3.2057 8.5578-1.9269-0.72731-2.4011-0.62776-3.8337 0.80485-2.1884 2.1884-1.4746 3.2017 5.6592 8.0335 3.1326 2.1217 7.5434 5.4472 9.8018 7.3899 6.8136 5.8612 12.765 9.9399 19.818 13.583 3.6844 1.9029 6.8442 3.8455 7.0218 4.3168 0.17762 0.47135-1.7008 4.7422-4.1742 9.4908-3.2718 6.2813-5.0636 8.9267-6.5761 9.7089-2.518 1.3021-14.081 4.0825-25.521 6.1367-11.799 2.1186-14.635 3.0519-25.717 8.4633-14.854 7.2528-16.671 7.6849-31.989 7.6066-7.1019-0.0363-15.218-0.49025-18.035-1.0087zm-1.6822-8.8356c1.4166-3.109-1.0465-4.608-15.268-9.2922-3.1188-1.0273-4.6385-0.31767-4.6369 2.1652 1e-3 2.4513 3.7947 5.1106 10.61 7.4387 6.0772 2.076 8.2401 2.0034 9.2949-0.31162zm17.863-5.8854c0.70429-2.8061-0.87801-3.8822-7.9954-5.4376-3.4655-0.75731-8.4885-2.0526-11.162-2.8784-6.0821-1.8786-6.653-1.8713-7.7069 0.0978-0.74842 1.3984-0.57311 1.8519 1.3963 3.6116 3.1404 2.8059 14.591 6.4309 20.434 6.4686 4.3038 0.0277 4.5865-0.0768 5.0346-1.862z" /><path
       id="path36"
       d="m433.59 295.66c0-2.6416-4.7824-8.1417-7.0793-8.1417-0.7983 0-2.9389 0.98527-4.757 2.1895-3.2998 2.1857-3.3294 2.1902-17.14 2.6401-8.5418 0.2782-14.534 0.173-15.664-0.27497-1.6772-0.66515-1.5249-0.76823 1.8295-1.2381 2.0125-0.28189 6.7875-1.3244 10.611-2.3168 17.143-4.4491 28.339-3.4742 34.377 2.9935 1.6862 1.8063 1.7367 2.0723 0.7318 3.8545-1.5888 2.8178-2.9089 2.9512-2.9089 0.29399z" /></g><path
     id="path40"
     fill="#a0a0a0"
     d="m191.36 260.31c-7.4013-4.1022-12.436-9.4086-16.09-16.956-1.6155-3.3376-2.9373-6.4327-2.9373-6.8779 0-0.44519 1.8936-1.1793 4.2079-1.6314 8.037-1.57 13.756-3.5919 15.545-5.4955 1.742-1.8543 1.7452-1.8858 0.33376-3.2681-1.4026-1.3736-1.5298-1.3675-8.0115 0.3815-7.9123 2.135-12.126 2.289-13.725 0.50152-0.63003-0.70436-2.6641-4.7146-4.5201-8.9117-2.5686-5.8084-3.1523-7.7721-2.444-8.2216 0.5118-0.32483 3.5381-0.59565 6.7251-0.60181 7.0924-0.0137 14.712-1.2692 15.822-2.6069 1.338-1.6121 0.49706-3.4758-1.8581-4.1182-1.2075-0.32933-6.8058-0.56784-12.441-0.53002-5.7608 0.0386-11.13-0.27633-12.266-0.71966-1.4575-0.56858-2.6599-2.1258-4.312-5.5844-1.8289-3.8288-3.6714-6.0632-9.1363-11.08-5.2298-4.8006-7.3615-7.3424-9.0322-10.77-2.7541-5.6499-6.9708-21.031-7.9216-28.896-1.0805-8.9376-1.9896-9.8489-17.032-17.071-6.8178-3.2734-12.253-6.0946-12.078-6.2693s4.0783 0.92001 8.6747 2.4328c8.7051 2.8651 10.779 2.9075 10.779 0.2205 0-2.5092-2.7005-5.4848-14.536-16.017-6.0609-5.3934-10.896-9.9295-10.745-10.08 0.15085-0.15085 5.9833 3.1697 12.961 7.3789 6.9777 4.2092 15.435 9.0495 18.795 10.756 5.64 2.8651 6.1994 3.0117 7.2982 1.9129s1.0911-1.3718-0.1003-3.5621c-0.70967-1.3047-4.589-6.1394-8.6208-10.744-8.8813-10.143-18.224-21.581-18.224-22.311 0-0.29379 3.5401 2.7544 7.8669 6.7738 16.518 15.345 31.635 27.451 33.771 27.046 0.65686-0.12439 1.2739-1.0954 1.4024-2.2071 0.16925-1.4638-1.4802-4.7285-6.2824-12.434-8.9022-14.285-16.404-27.022-16.096-27.33 0.14015-0.14015 3.7373 4.0946 7.9937 9.4105 4.2564 5.3159 11.381 13.658 15.833 18.537 11.583 12.695 16.251 16.21 17.433 13.129 0.22183-0.57808-2.2312-7.082-5.4511-14.453-10.48-23.992-11.79-28.503-3.874-13.339 5.5528 10.636 14.017 23.813 24.138 37.577 3.6805 5.0052 6.6918 9.4562 6.6918 9.891s-1.3588 3.0905-3.0195 5.9016-3.6366 6.8317-4.3908 8.9347c-2.9506 8.227-1.072 19.303 5.582 32.911 3.1362 6.4136 5.0423 9.2606 8.772 13.102 2.6209 2.6994 4.7652 5.1601 4.7652 5.4682 0 0.30808-0.53836 2.645-1.1964 5.1931-1.4464 5.6014-1.0645 23.152 0.87492 40.202 1.199 10.541 1.195 10.735-0.28799 14.087-0.99347 2.2459-1.9522 3.3961-2.8255 3.3897-0.727-5e-3 -3.7917-1.3786-6.8104-3.0518zm-16.832-81.096c0.80499-0.80499 1.4636-1.7853 1.4636-2.1786 0-1.6202-3.7593-2.901-11.709-3.9894-4.6287-0.6337-11.176-1.638-14.551-2.2318-3.3742-0.59378-6.4203-0.9032-6.7692-0.68758-1.2242 0.75658-0.62017 3.8916 0.96347 5.0008 1.9361 1.3561 9.3969 3.0563 19.259 4.3888 9.9391 1.3429 9.6912 1.3495 11.343-0.30229zm-3.7981-31.68c0.27563-2.2898-0.49211-2.7456-8.2767-4.9134-3.22-0.89668-8.6236-2.8789-12.008-4.405-6.5224-2.941-8.1167-3.019-8.1167-0.39763 0 3.6169 9.9351 9.1624 20.857 11.642 5.2046 1.1814 7.2332 0.66368 7.5449-1.9255z" /><path
     id="path42"
     fill="#4d4d4d"
     d="m252.31 190.75c-0.39323-0.50948-1.7732-2.8093-3.0667-5.1107l-2.3518-4.1844 6.7576-8.9881c8.7752-11.672 21.666-24.512 30.645-30.526 9.598-6.4281 11.669-8.5482 19.002-19.452 8.746-13.005 9.956-15.47 8.9286-18.192-0.44399-1.1763-0.65708-2.3817-0.47353-2.6787 0.18356-0.29699 2.4623-0.94161 5.0638-1.4325 2.6015-0.49087 5.3066-1.3141 6.0114-1.8294 1.2038-0.88022 1.1638-1.1635-0.66099-4.6806-1.2051-2.3229-1.6084-3.7425-1.0626-3.7405 0.48385 0.0018 4.6335 1.3044 9.2214 2.8947 6.2776 2.176 8.6769 2.7121 9.6964 2.1664 0.74511-0.39877 1.3547-1.0999 1.3547-1.558s-2.6433-4.8684-5.8741-9.8007c-5.6832-8.6762-7.9151-13.092-7.0531-13.954 0.22803-0.22803 3.844 3.0819 8.0354 7.3554 11.164 11.383 13.304 10.562 7.891-3.0263-3.788-9.5081-5.9265-16.119-5.9265-18.321 0-3.3773 2.0099-0.35162 8.4098 12.66 3.4187 6.9505 6.6881 12.819 7.2653 13.04 3.4808 1.3357 3.7375-6.5683 0.78388-24.135-1.0492-6.24-1.7607-11.732-1.581-12.205 0.9257-2.4347 5.2923 13.271 7.4437 26.774 1.4203 8.9141 2.1108 10.787 3.9771 10.787 2.03 0 2.7344-3.1029 4.437-19.544 0.78334-7.5644 1.6475-15.235 1.9204-17.047 1.6328-10.837 2.3125 18.325 0.8756 37.563-0.74065 9.9161-0.71446 11.679 0.18194 12.247 0.57594 0.36447 1.299 0.66771 1.6068 0.67388 1.2837 0.02571 3.6802-5.3809 6.8069-15.357 1.8292-5.8362 3.8139-11.764 4.4104-13.173 1.0325-2.4384 1.0672-2.21 0.72272 4.7567-0.55525 11.229-4.0971 27.522-10.408 47.878-4.5894 14.803-10.667 30.899-11.837 31.348-0.53733 0.2062-4.1869-1.1646-8.1102-3.0463-11.768-5.6442-21.053-6.1892-33.634-1.9742-9.5813 3.21-22.237 9.25-29.198 13.935-19.311 12.997-26.856 18.596-32.826 24.361-5.0007 4.8291-6.8489 6.2093-7.385 5.5148zm51.011-42.273c0.99953-1.8676 0.0606-3.7134-3.12-6.1336-3.3898-2.5794-6.0861-3.1262-6.9994-1.4196-1.0416 1.9462 0.4248 4.2782 4.3112 6.8565 3.8355 2.5445 4.76 2.6554 5.8082 0.69671zm17.429-11.561c0.42927-4.4668-5.4991-12.203-8.9707-11.706-2.3727 0.3394-2.3032 3.2512 0.15994 6.705 1.1862 1.6632 2.7149 4.1144 3.3972 5.447 1.0069 1.9668 1.6114 2.3801 3.2111 2.1954 1.6374-0.18905 2.0098-0.63562 2.2026-2.641zm37.515-1.3605c0.78238-1.465 1.0268-4.9187 0.99111-14.007-0.0461-11.756-0.0911-12.098-1.7695-13.457-1.5703-1.2716-1.8243-1.2925-2.8799-0.23715-0.96865 0.96836-1.1577 3.2747-1.1577 14.121 0 7.1301 0.23665 13.54 0.52589 14.244 0.78344 1.9079 3.1089 1.5481 4.2902-0.66381zm-18.251-2.7474c1.6599-3.6431-2.8218-17.681-6.3696-19.952-1.2566-0.80416-1.7409-0.79649-2.8929 0.0459-1.2079 0.8832-1.2768 1.3245-0.54305 3.4742 5.716 16.746 6.3647 18.144 8.437 18.185 0.3105 6e-3 0.92635-0.78288 1.3686-1.7534z" /><path
     id="path44"
     fill="#a0a0a0"
     d="m412.73 309.92c-2.8174-0.536-8.7995-2.1643-13.293-3.6185-11.525-3.7292-23.005-5.1212-38.299-4.6438-10.906 0.34049-14.16 0.80639-21.084 3.0186l-1.691 0.54032 1.9198-3.7885c1.0559-2.0837 3.2584-5.2407 4.8944-7.0156 2.603-2.8239 3.3561-3.2271 6.0277-3.2271 1.6792 0 6.8239 1.2974 11.433 2.883 10.18 3.5024 16.538 4.429 30.57 4.4548 16.582 0.0306 23.156 0.86591 28.385 3.607 2.7187 1.4251 5.9856 2.4685 8.5612 2.7343 4.4639 0.46072 4.8869 0.83752 2.8843 2.5694-3.3096 2.8622-12.449 3.9809-20.308 2.4859z" /><path
     id="path46"
     fill="#a0a0a0"
     d="m454.47 307.94c-13.632-0.77852-13.563-0.75693-13.563-4.2761 0-3.9698 0.61021-5.1686 2.6309-5.1686 2.362 0 14.864 4.0484 21.109 6.8355 4.4906 2.0041 4.8721 2.3244 3.2931 2.7653-0.98223 0.27423-2.1152 0.48261-2.5177 0.46308-0.4025-0.0195-5.3311-0.29819-10.952-0.61924z" /><path
     id="path48"
     fill="#808080"
     d="m200.08 288.51c-1.0092-0.27114-0.88405-1.335 1.0016-8.5136 2.6885-10.235 5.1644-17.365 5.4794-15.779 0.33788 1.7012 3.568 2.1406 16.061 2.1849 25.265 0.0897 32.468 0.84477 40.483 4.2437 6.9029 2.9275 15.256 7.2847 14.054 7.3314-0.50294 0.0195-3.9607-0.49506-7.684-1.1435-9.1543-1.5944-15.09-1.0061-25.947 2.5716-18.535 6.108-38.797 10.354-43.448 9.1043z" /><path
     id="path50"
     fill="#333"
     d="m182.89 287.62c-3.0596-1.4072-4.2992-3.2606-6.1814-9.2415-0.50664-1.61-3.1504-7.8669-5.8751-13.904-7.0882-15.706-10.17-23.715-15.349-39.883-5.3754-16.783-7.1301-20.74-11.088-25.005-1.6177-1.7433-3.8897-5.0392-5.0488-7.3242s-2.478-4.3836-2.931-4.6636c-0.45295-0.27994-2.0387-2.4309-3.524-4.7799-1.4852-2.349-4.0818-5.2716-5.7702-6.4946-2.5196-1.8252-3.1573-2.7814-3.5586-5.3358-0.50515-3.2158-2.8392-6.0728-8.3107-10.172-2.5429-1.9054-2.5513-1.9303-1.1672-3.4668 0.76675-0.85119 1.7288-1.5476 2.1378-1.5476s1.3354-0.53542 2.0584-1.1898c1.9099-1.7284 0.72267-3.383-4.6858-6.5304-4.7673-2.7743-8.5886-5.9604-8.5886-7.1612 0-0.42552 2.5287-0.55113 6.4033-0.31808 7.261 0.43672 8.2328 0.24581 8.2328-1.6173 0-1.8776-3.6337-4.85-16.217-13.266-6.0458-4.0434-10.861-7.4832-10.7-7.6439 0.54431-0.54431 7.2544 2.3448 7.0224 3.0235-0.12669 0.37054 5.1693 3.3628 11.769 6.6495 6.5995 3.2867 12.941 6.9173 14.091 8.068 1.5222 1.5222 2.3044 3.2835 2.8711 6.4649 1.5372 8.6297 5.1858 23.27 7.0801 28.409 1.7199 4.6658 2.782 6.1131 9.7506 13.286 4.683 4.8204 8.5841 9.5708 9.724 11.841 2.1765 4.3345 4.2294 6.049 7.399 6.1797 1.3884 0.0572 0.76341 0.30274-1.6743 0.65769-4.5432 0.66154-4.8152 0.84567-4.1848 2.8321 0.4814 1.5168 4.1017 2.948 7.7087 3.0475l1.8295 0.0505-1.6974 0.68065c-2.0422 0.8189-1.9417 1.2605 2.4205 10.639 1.7026 3.6605 3.8349 7.1733 4.7384 7.8061l1.6426 1.1506-1.7225 0.2438c-1.3719 0.19415-1.7225 0.69071-1.7225 2.4392 0 2.1212 0.13612 2.21 4.0249 2.625 2.2137 0.23627 3.3109 0.48326 2.4382 0.54886-2.521 0.18951-3.9018 0.92288-3.9018 2.0722 0 0.58549 1.2331 3.5934 2.7403 6.6843 4.3718 8.9655 14.697 18.158 22.046 19.628 2.6716 0.53432 2.6014 0.30999 1.169 3.7384-0.61689 1.4764-1.6318 5.1542-2.2553 8.1729-2.3949 11.595-6.5926 15.621-13.144 12.607z" /><path
     id="path52"
     fill="#a0a0a0"
     d="m199.98 287.85c-0.65153-0.65153 2.3347-12.545 4.9848-19.853 1.0423-2.8745 1.2272-3.0175 3.0808-2.3836 1.0845 0.37091 11.522 0.98269 23.194 1.3595 24.184 0.78075 26.094 1.1223 37.322 6.6768 5.5109 2.7261 6.6856 3.5351 4.7568 3.2759-1.4087-0.18929-6.153-0.56941-10.543-0.8447-6.1179-0.38366-7.8551-0.29579-7.4397 0.37629 0.38551 0.62377 0.0472 0.75265-1.1724 0.44656-1.0301-0.25854-6.0929 0.88044-12.685 2.8537-13.5 4.0411-21.636 6.1152-29.266 7.4606-6.0101 1.0598-11.521 1.3447-12.233 0.63237z" /><path
     id="path54"
     fill="#333"
     d="m199.96 287.14c-0.19419-1.0158-0.0667-2.024 0.28328-2.2403 0.34999-0.21631 0.43479-1.1964 0.18843-2.178-0.24636-0.98157-0.12858-1.7847 0.26174-1.7847 0.39031 0 0.54292-0.87223 0.33913-1.9383-0.27929-1.461-0.13637-1.7936 0.58045-1.3505 0.65704 0.40607 0.77395 0.30129 0.37826-0.33896-0.33364-0.53983-0.15172-1.1934 0.43578-1.5655 0.85151-0.53933 0.84844-0.64052-0.0197-0.64998-0.78628-9e-3 -0.71655-0.35556 0.29637-1.4748 0.7285-0.80498 1.0685-1.4636 0.75562-1.4636s-0.15897-0.49397 0.34209-1.0977 0.66572-1.0977 0.3659-1.0977c-0.29981 0-0.13515-0.49397 0.36591-1.0977s0.68251-1.0977 0.40323-1.0977-3e-3 -0.50468 0.61372-1.1215c0.98046-0.98046 2.5283-1.0221 12.308-0.33137 6.1524 0.43457 13.822 0.58625 17.043 0.33707 4.4607-0.34507 5.5951-0.25431 4.759 0.38075-0.84074 0.63863 0.31559 0.76493 4.9397 0.53955 3.3546-0.1635 6.0374 2e-3 6.0374 0.37167 0 0.36627 0.90561 0.60623 2.0125 0.53324 1.1069-0.073 2.3418-0.0476 2.7443 0.0563 0.40249 0.10396 1.0611 0.26877 1.4636 0.36625 0.4025 0.0975 1.3904 0.39351 2.1954 0.65785 0.80498 0.26434 1.7561 0.43561 2.1136 0.3806 0.35749-0.055 0.88109 0.27393 1.1636 0.73096 0.28246 0.45704 1.2249 0.88455 2.0943 0.95004 0.8694 0.0655 1.5807 0.39775 1.5807 0.73834 0 0.3406 0.32932 0.41574 0.73181 0.16698 0.4025-0.24875 0.73181-0.0841 0.73181 0.36591 0 0.45 0.32931 0.61466 0.73181 0.3659 0.40249-0.24875 0.7318-0.14348 0.7318 0.23393 0 0.37742 1.0327 1.114 2.2949 1.6368 2.2385 0.92723 2.254 0.96571 0.63075 1.5662-0.94917 0.35112-4.2235 0.27503-7.6211-0.1771-5.3413-0.7108-6.5598-0.6291-11.791 0.79059-3.2086 0.87082-6.1632 1.6422-6.5656 1.7142-0.4025 0.072-1.1434 0.38811-1.6466 0.70241-0.50312 0.31431-0.91476 0.34705-0.91476 0.0728 0-0.27428-0.46195-0.11531-1.0266 0.35326-0.78828 0.65422-1.1146 0.63255-1.4058-0.0933-0.30662-0.76418-0.39036-0.76176-0.43706 0.0126-0.032 0.53079-0.43361 0.72567-0.9006 0.43706-0.46356-0.2865-1.2868 0.0863-1.8295 0.82848-0.61786 0.84496-0.9867 0.99004-0.9867 0.3881 0-0.7212-0.24527-0.75772-0.98209-0.14622-0.54015 0.44828-1.2257 0.57145-1.5234 0.27371-0.29775-0.29775-1.0084 0.0974-1.5792 0.87802-0.69412 0.94927-1.0379 1.0822-1.0379 0.40135 0-0.75241-0.21421-0.80383-0.82098-0.19706-0.45154 0.45154-1.2415 0.65961-1.7555 0.46238-0.51398-0.19724-1.143-0.0212-1.3979 0.39112-0.25485 0.41236-0.91347 0.57702-1.4636 0.36591s-1.221-0.0267-1.4908 0.4098-0.79705 0.60417-1.1717 0.3726c-0.37468-0.23156-1.0871-0.17019-1.5831 0.13638-0.49604 0.30657-1.5663 0.65536-2.3784 0.7751-2.756 0.40637-4.4037 0.76191-4.4037 0.95026 0 0.29562-4.1346 0.7685-6.9522 0.79513-2.0955 0.0198-2.2951 0.1399-1.0977 0.66033 1.0657 0.46319 0.34284 0.65011-2.659 0.68756-3.8442 0.048-4.1464-0.0733-4.4757-1.7956z" /><path
     id="path56"
     fill="#999"
     d="m42.435 328.5c-7.1838-0.63924-10.611-1.3673-10.611-2.2541 0-0.87802-1.582-0.73907 15.002-1.3177 10.503-0.36647 15.08-0.79723 16.207-1.5254 1.356-0.87619 2.0089-0.84731 4.7812 0.21146 5.9565 2.2748 8.9981 1.7214 33.166-6.0353 14.349-4.6052 15.804-4.8525 18.013-3.0614 0.9601 0.77836 1.581 1.5629 1.3797 1.7434-1.2935 1.1603-34.062 9.8593-44.538 11.823-6.426 1.2047-22.311 1.4025-33.399 0.41575z" /><path
     id="path58"
     fill="#a0a0a0"
     d="m115.25 303.39c0-0.82552 1.2851-1.54 4.2079-2.3396 5.756-1.5746 13.612-4.5457 18.64-7.05 2.3029-1.1468 6.4193-2.408 9.1476-2.8025 5.8952-0.85243 22.041-0.90271 26.183-0.0815l2.9272 0.58039-2.7023 1.1992c-3.9907 1.771-16.632 5.315-29.308 8.2163-13.55 3.1014-29.096 4.3183-29.096 2.2777z" /></svg>